<svg width="51" height="123" viewBox="0 0 51 123" fill="none" xmlns="http://www.w3.org/2000/svg">
<path d="M51 44.7772C51 28.8229 49.7481 25.1887 44.533 25.1887C38.8829 25.1887 39.3236 32.6298 39.3236 46.6514C39.3236 65.7079 40.7719 72.3163 32.8342 73.1155C32.8342 51.0541 32.8342 28.7617 32.8342 22.8718C32.8342 10.2816 33.4208 0 25.5 0C17.5791 0 18.1658 10.2816 18.1658 22.8718C18.1658 28.7617 18.1658 51.0569 18.1658 73.1155C10.2281 72.319 11.6764 65.7079 11.6764 46.6514C11.6764 32.6298 12.1171 25.1887 6.46696 25.1887C1.24908 25.1887 0 28.8229 0 44.7772C0 73.1378 3.52802 80.551 18 81.1024C18 103.211 18 123 18 123L25.5 123L33 123C33 123 33 103.109 33 81C47.472 80.4486 51 73.135 51 44.7772Z" fill="#B2FFF6"/>
</svg>
