<svg width="749" height="255" viewBox="0 0 749 255" fill="none" xmlns="http://www.w3.org/2000/svg">
<path d="M-2 21.9619C26.318 24.9269 54.637 27.8909 82.955 30.8559L99.398 166.408L141.875 132.152V77.3419H192.574L370.705 207.515H709.154C722.27 223.211 735.385 239.304 748.501 255C498.334 255 248.168 255 -1.999 255C-2 177.453 -2 99.5089 -2 21.9619Z" fill="#008A79"/>
<path d="M192.574 77.3419C216.931 99.2809 241.287 121.22 265.644 143.159C265.623 143.939 265.603 144.719 265.583 145.498C289.442 166.19 313.3 186.882 337.159 207.575C348.341 207.575 359.523 207.575 370.705 207.575C312.861 164.206 255.016 120.838 197.172 77.4689C195.639 77.4269 194.106 77.3849 192.574 77.3419Z" fill="#003C35"/>
<path d="M82.9551 30.856C85.7891 31.255 88.6231 31.653 91.4561 32.052C101.072 71.217 110.688 110.382 120.304 149.548C113.335 155.168 106.366 160.788 99.3971 166.408L82.9551 30.856Z" fill="#003C35"/>
<path d="M166.871 77.3419V110.804L162.721 77.3419H166.871Z" fill="#003C35"/>
<path d="M265.583 143.091C265.55 179.894 265.518 216.696 265.486 253.499C262.247 213.75 259.008 174 255.769 134.25L265.583 143.091Z" fill="#003C35"/>
<path d="M45.7348 26.9588C44.4498 42.1948 43.1658 57.4308 41.8808 72.6668C40.9928 57.2028 40.1048 41.7399 39.2168 26.2769L45.7348 26.9588Z" fill="#003C35"/>
<path d="M180.811 207.576C195.494 210.507 210.177 213.437 224.86 216.368C225.043 229.032 225.226 241.695 225.409 254.359C223.345 254.358 221.28 254.356 219.216 254.355C219.275 242.247 219.335 230.139 219.394 218.032C206.533 214.546 193.672 211.061 180.811 207.576Z" fill="#003C35"/>
<path d="M337.277 207.576C336.626 218.393 335.974 229.209 335.322 240.026C333.471 227.074 331.621 214.121 329.77 201.169C332.273 203.304 334.775 205.44 337.277 207.576Z" fill="#003C35"/>
<path d="M370.705 207.576L728.75 230.967L709.153 207.515L370.705 207.576Z" fill="#003C35"/>
<path d="M513.668 178.386C514.353 178.519 514.777 179.231 514.97 180.444C515.071 181.051 515.116 181.781 515.026 182.593C514.935 183.402 514.872 184.349 514.593 185.315C514.326 186.284 514.073 187.369 513.607 188.434C513.187 189.523 512.687 190.653 512.053 191.766C511.478 192.916 510.714 194.002 509.962 195.131C509.15 196.212 508.317 197.321 507.365 198.331L505.929 199.841L504.389 201.238C503.385 202.186 502.235 202.947 501.18 203.754C500.042 204.456 498.99 205.217 497.861 205.76C496.763 206.351 495.694 206.874 494.644 207.271C493.62 207.718 492.621 208.036 491.702 208.295C490.797 208.586 489.953 208.766 489.209 208.883C487.739 209.172 486.669 209.182 486.177 209.068C485.735 208.973 484.53 208.691 484.386 207.954C484.243 207.217 485.14 206.413 485.441 206.134C485.788 205.824 486.642 205.391 487.806 204.734C488.397 204.434 489.066 204.085 489.779 203.646C490.504 203.239 491.29 202.797 492.09 202.251C492.915 201.756 493.747 201.163 494.603 200.533C495.489 199.953 496.299 199.183 497.196 198.509C498.013 197.728 498.93 197.028 499.719 196.172L500.951 194.937L502.114 193.634C502.897 192.776 503.589 191.849 504.3 190.969C504.949 190.044 505.651 189.178 506.21 188.264C506.828 187.384 507.361 186.501 507.868 185.658C508.422 184.836 508.816 184 509.284 183.263C509.765 182.529 510.086 181.809 510.498 181.202C510.909 180.593 511.244 180.048 511.585 179.607C512.278 178.729 512.983 178.254 513.668 178.386Z" fill="#003C35"/>
<path d="M458.237 183.061C458.898 182.835 459.648 183.176 460.43 183.896C460.817 184.258 461.211 184.718 461.679 185.229C462.148 185.738 462.548 186.363 463.091 186.984C463.624 187.609 464.1 188.334 464.717 189.031C465.295 189.752 465.899 190.509 466.579 191.254C467.209 192.036 467.963 192.762 468.674 193.548C469.436 194.286 470.185 195.072 471.008 195.785C471.816 196.517 472.646 197.232 473.513 197.893C474.34 198.607 475.265 199.167 476.108 199.812C477.012 200.351 477.846 200.988 478.728 201.445C479.588 201.95 480.423 202.425 481.239 202.812C482.038 203.247 482.813 203.591 483.527 203.908C484.233 204.254 484.889 204.525 485.468 204.757C486.614 205.274 487.45 205.617 487.8 205.89C488.105 206.136 489.012 206.84 488.939 207.588C488.865 208.335 487.757 208.741 487.349 208.881C486.897 209.044 485.891 209.145 484.484 209.024C483.774 208.99 482.965 208.906 482.087 208.727C481.2 208.577 480.231 208.382 479.226 208.07C478.201 207.806 477.145 207.428 476.054 206.99C474.94 206.599 473.872 206.001 472.732 205.464C471.656 204.823 470.498 204.233 469.453 203.456C468.368 202.733 467.333 201.922 466.345 201.063C465.342 200.223 464.436 199.28 463.555 198.359C462.722 197.389 461.886 196.458 461.215 195.449C460.496 194.48 459.897 193.481 459.378 192.511C458.821 191.568 458.455 190.584 458.095 189.707C457.724 188.835 457.553 187.956 457.377 187.208C457.202 186.457 457.162 185.766 457.19 185.182C457.241 184.017 457.576 183.287 458.237 183.061Z" fill="#003C35"/>
<path d="M487.238 208.6C486.069 209.329 484.116 207.964 482.079 205.204C480.054 202.452 478.015 198.305 476.666 193.831C475.281 189.366 474.575 184.619 474.467 180.838C474.347 177.052 474.715 174.252 475.145 173.473C475.332 173.122 475.861 172.149 476.612 172.139C477.363 172.129 477.958 173.048 478.168 173.365C478.629 174.086 479.214 176.685 480.047 180.084C480.87 183.489 482.034 187.676 483.378 191.698C484.691 195.732 486.202 199.586 487.141 202.607C488.084 205.62 488.44 207.853 487.238 208.6Z" fill="#003C35"/>
<path d="M494.866 168.245C496.248 168.182 497.296 170.525 497.736 174.222C498.185 177.908 497.949 182.92 496.969 187.91C496.014 192.906 494.323 197.845 492.573 201.569C490.835 205.307 489.113 207.854 488.362 208.426C488.027 208.684 487.065 209.39 486.391 209.06C485.716 208.731 485.65 207.565 485.617 207.156C485.548 206.232 486.337 203.417 487.271 199.674C488.221 195.933 489.255 191.251 490.043 186.637C490.853 182.025 491.417 177.485 492.049 174.059C492.689 170.639 493.458 168.307 494.866 168.245Z" fill="#003C35"/>
<path d="M50.6054 7.91393C51.0384 8.04893 51.2594 8.53992 51.2964 9.33692C51.3174 9.73592 51.2934 10.2109 51.1764 10.7279C51.0584 11.2429 50.9494 11.8499 50.6994 12.4529C50.4564 13.0589 50.2144 13.7409 49.8364 14.3949C49.4864 15.0669 49.0814 15.7599 48.5914 16.4329C48.1364 17.1329 47.5644 17.7789 46.9974 18.4529C46.3944 19.0919 45.7764 19.7479 45.0884 20.3299L44.0514 21.2009L42.9554 21.9909C42.2384 22.5299 41.4404 22.9379 40.7004 23.3819C39.9144 23.7519 39.1804 24.1669 38.4124 24.4359C37.6614 24.7379 36.9324 24.9979 36.2254 25.1779C35.5324 25.3919 34.8634 25.5249 34.2524 25.6259C33.6474 25.7479 33.0894 25.8029 32.6004 25.8239C31.6304 25.9039 30.9384 25.8319 30.6304 25.7239C30.3514 25.6299 29.5944 25.3609 29.5554 24.8749C29.5164 24.3879 30.1544 23.9349 30.3694 23.7769C30.6154 23.6019 31.1984 23.3849 31.9984 23.0449C32.4014 22.8939 32.8584 22.7169 33.3504 22.4859C33.8474 22.2759 34.3874 22.0469 34.9434 21.7529C35.5114 21.4939 36.0924 21.1709 36.6904 20.8259C37.3044 20.5159 37.8834 20.0769 38.5114 19.7079C39.0954 19.2629 39.7384 18.8779 40.3104 18.3819L41.1954 17.6739L42.0404 16.9169C42.6084 16.4199 43.1224 15.8719 43.6444 15.3549C44.1304 14.8049 44.6474 14.2969 45.0744 13.7479C45.5374 13.2249 45.9454 12.6929 46.3344 12.1859C46.7514 11.6959 47.0664 11.1849 47.4224 10.7429C47.7864 10.3039 48.0454 9.86193 48.3564 9.49993C48.6664 9.13693 48.9214 8.80892 49.1744 8.54892C49.6834 8.03392 50.1734 7.77893 50.6054 7.91393Z" fill="#003C35"/>
<path d="M14.4814 6.90589C14.9244 6.80789 15.3834 7.0819 15.8364 7.6039C16.0604 7.8659 16.2804 8.19089 16.5454 8.55489C16.8114 8.91789 17.0244 9.3499 17.3294 9.7909C17.6274 10.2329 17.8824 10.7359 18.2304 11.2299C18.5514 11.7369 18.8864 12.2699 19.2714 12.7999C19.6214 13.3509 20.0554 13.8739 20.4574 14.4329C20.8954 14.9649 21.3224 15.5259 21.8014 16.0469C22.2704 16.5779 22.7534 17.0999 23.2654 17.5899C23.7474 18.1109 24.3044 18.5399 24.8014 19.0169C25.3464 19.4309 25.8374 19.9019 26.3744 20.2609C26.8934 20.6489 27.3974 21.0169 27.8964 21.3259C28.3804 21.6649 28.8554 21.9429 29.2934 22.1999C29.7244 22.4749 30.1284 22.6969 30.4844 22.8889C31.1864 23.3059 31.7014 23.5879 31.9084 23.7899C32.0874 23.9709 32.6224 24.4919 32.5204 24.9689C32.4184 25.4459 31.6734 25.6269 31.4004 25.6879C31.0964 25.7609 30.4404 25.7519 29.5404 25.5729C29.0844 25.4989 28.5684 25.3859 28.0144 25.2069C27.4524 25.0459 26.8414 24.8489 26.2154 24.5749C25.5734 24.3299 24.9184 24.0099 24.2464 23.6479C23.5554 23.3149 22.9094 22.8509 22.2124 22.4219C21.5644 21.9299 20.8594 21.4649 20.2414 20.8879C19.5934 20.3419 18.9844 19.7439 18.4094 19.1169C17.8234 18.5019 17.3064 17.8269 16.8044 17.1689C16.3374 16.4819 15.8654 15.8199 15.5054 15.1209C15.1114 14.4429 14.7974 13.7549 14.5324 13.0909C14.2414 12.4419 14.0764 11.7799 13.9074 11.1869C13.7314 10.5969 13.6844 10.0169 13.6254 9.52089C13.5664 9.02389 13.5914 8.57389 13.6524 8.19989C13.7694 7.45089 14.0384 7.00389 14.4814 6.90589Z" fill="#003C35"/>
<path d="M31.3497 25.4999C30.5427 25.8849 29.3807 24.8629 28.2657 22.9329C27.1587 21.0089 26.1427 18.1839 25.5977 15.1979C25.0277 12.2149 24.9167 9.09889 25.1217 6.64989C25.3187 4.19689 25.7597 2.41589 26.0937 1.94489C26.2397 1.73189 26.6527 1.1419 27.1377 1.1899C27.6227 1.2379 27.9407 1.87389 28.0527 2.09389C28.2977 2.59289 28.4867 4.31389 28.7777 6.56789C29.0617 8.82589 29.5087 11.6139 30.0847 14.3069C30.6397 17.0069 31.3347 19.6039 31.7217 21.6229C32.1127 23.6369 32.1797 25.1049 31.3497 25.4999Z" fill="#003C35"/>
<path d="M39.2039 0.00191496C40.1009 0.061915 40.6069 1.64992 40.6229 4.06892C40.6449 6.48092 40.1289 9.69892 39.1339 12.8499C38.1549 16.0059 36.7039 19.0709 35.3039 21.3489C33.9109 23.6359 32.6139 25.1549 32.0879 25.4689C31.8529 25.6119 31.1809 25.9969 30.7689 25.7349C30.3569 25.4729 30.3989 24.7159 30.4079 24.4489C30.4309 23.8469 31.1439 22.0869 32.0189 19.7389C32.9039 17.3929 33.9119 14.4449 34.7549 11.5239C35.6119 8.6049 36.3059 5.71492 36.9629 3.54992C37.6249 1.38892 38.2909 -0.060085 39.2039 0.00191496Z" fill="#003C35"/>
</svg>
