<svg width="293" height="224" viewBox="0 0 293 224" fill="none" xmlns="http://www.w3.org/2000/svg">
<g clip-path="url(#clip0_708_187)">
<path d="M2 149.017C4.074 160.918 6.14899 172.82 8.22299 184.721L30.147 208.182L34.805 225.218L292.785 224.923V174.734C195.857 166.162 98.928 157.589 2 149.017Z" fill="#003C35"/>
<g clip-path="url(#clip1_708_187)">
<path d="M293.035 223.218H158L68.3399 196.587L60.7929 174.547L8.70993 150.163L2.00195 147.022L47.2469 133L173.075 153.574L181.942 146.104C218.88 151.14 255.827 156.177 292.765 161.213V166.219C292.775 184.769 293.025 204.669 293.035 223.218Z" fill="#008A79"/>
<g filter="url(#filter0_f_708_187)">
<path d="M73 176.5C73 175.119 74.1193 174 75.5 174H220.5C221.881 174 223 175.119 223 176.5C223 177.881 221.881 179 220.5 179H75.5C74.1193 179 73 177.881 73 176.5Z" fill="#135E50"/>
</g>
</g>
</g>
<g filter="url(#filter1_d_708_187)">
<g clip-path="url(#clip2_708_187)">
<rect x="132" y="68" width="22" height="110" rx="6" fill="#B07054"/>
<path opacity="0.5" d="M138 60.6833C138.051 67.4929 137.966 74.3066 138.129 81.1083C138.294 88.0301 140.058 94.2132 140.382 101.053C141.116 116.544 141.036 132.095 141.222 147.652C141.233 148.573 142.368 149.72 142.393 148.408C142.668 133.838 143.365 119.704 142.76 105.13C142.463 97.9804 141.099 92.2696 140.247 85.2998C139.301 77.5533 139.871 69.3985 139.352 61.554C139.285 60.5511 137.987 59.142 138 60.6833Z" fill="#996148"/>
<path opacity="0.5" d="M133 61.6833C133.072 68.4929 132.952 75.3066 133.18 82.1083C133.412 89.0301 135.882 95.2132 136.335 102.053C137.363 117.544 137.251 133.095 137.511 148.652C137.526 149.573 139.115 150.72 139.15 149.408C139.536 134.838 140.511 120.704 139.664 106.13C139.249 98.9804 137.339 93.2696 136.145 86.2998C134.821 78.5533 135.62 70.3985 134.893 62.554C134.8 61.5511 132.982 60.142 133 61.6833Z" fill="#996148"/>
<path opacity="0.5" d="M143 71.2534C143.082 73.7783 142.945 76.3047 143.206 78.8267C143.471 81.3932 146.293 83.6858 146.812 86.2219C147.986 91.9657 147.858 97.7318 148.155 103.5C148.093 105.56 149.922 105.794 150.029 103.781C150.469 98.3783 151.584 93.1377 150.616 87.7338C150.141 85.0827 147.959 82.9652 146.595 80.3809C145.081 77.5086 145.994 74.4849 145.163 71.5762C145.057 71.2044 142.979 70.6819 143 71.2534Z" fill="#996148"/>
<path opacity="0.5" d="M146 136.683C146.086 143.487 145.942 150.295 146.216 157.091C146.494 164.007 149.456 170.185 150 177.019C151.232 192.497 151.098 208.035 151.41 223.579C151.428 224.499 153.334 225.645 153.376 224.335C153.838 209.777 155.008 195.655 153.992 181.093C153.494 173.949 151.204 168.243 149.772 161.279C148.184 153.539 149.142 145.391 148.27 137.553C148.158 136.551 145.978 135.143 146 136.683Z" fill="#996148"/>
<path opacity="0.5" d="M133.108 176.531C132.796 160.987 132.93 145.449 131.698 129.971C131.698 129.971 127.816 114.453 128.007 111.453C128.197 108.453 135.198 110.453 131.47 114.231C127.743 118.01 135.192 126.901 135.69 134.045C136.706 148.607 135.536 162.729 135.074 177.287C135.032 178.597 133.126 177.451 133.108 176.531Z" fill="#996148"/>
<path opacity="0.5" d="M153.108 176.531C152.796 160.987 152.93 145.449 151.698 129.971C151.698 129.971 147.816 114.453 148.007 111.453C148.197 108.453 155.198 110.453 151.47 114.231C147.743 118.01 155.192 126.901 155.69 134.045C156.706 148.607 155.536 162.729 155.074 177.287C155.032 178.597 153.126 177.451 153.108 176.531Z" fill="#996148"/>
</g>
<rect x="132.5" y="68.5" width="21" height="109" rx="5.5" stroke="#996148"/>
</g>
<g filter="url(#filter2_d_708_187)">
<path d="M50.721 2.2346C50.9012 2.08308 51.1291 2 51.3645 2H238C238.552 2 239 2.44772 239 3V81C239 81.5523 238.552 82 238 82H51.348C51.1226 82 50.9039 81.9239 50.7272 81.784L2.96072 43.9607C2.46455 43.5678 2.45354 42.8187 2.93795 42.4114L50.721 2.2346Z" fill="#008A79"/>
<path d="M51.3645 1C50.8936 1 50.4378 1.16616 50.0774 1.46921L2.29439 41.646C1.32557 42.4606 1.34759 43.9589 2.33994 44.7447L50.1064 82.568C50.4598 82.8478 50.8973 83 51.348 83H238C239.105 83 240 82.1046 240 81V3C240 1.89544 239.105 1 238 1H51.3645Z" stroke="#003C35" stroke-width="2"/>
</g>
<path d="M55.7736 39V29.2H59.2876L61.2336 37.74H61.4856V29.2H63.3056V39H59.7916L57.8456 30.46H57.5936V39H55.7736ZM68.5125 39.196C67.8218 39.196 67.2012 39.056 66.6505 38.776C66.0998 38.496 65.6658 38.09 65.3485 37.558C65.0312 37.026 64.8725 36.3867 64.8725 35.64V35.416C64.8725 34.6693 65.0312 34.03 65.3485 33.498C65.6658 32.966 66.0998 32.56 66.6505 32.28C67.2012 32 67.8218 31.86 68.5125 31.86C69.2032 31.86 69.8238 32 70.3745 32.28C70.9252 32.56 71.3592 32.966 71.6765 33.498C71.9938 34.03 72.1525 34.6693 72.1525 35.416V35.64C72.1525 36.3867 71.9938 37.026 71.6765 37.558C71.3592 38.09 70.9252 38.496 70.3745 38.776C69.8238 39.056 69.2032 39.196 68.5125 39.196ZM68.5125 37.628C69.0538 37.628 69.5018 37.4553 69.8565 37.11C70.2112 36.7553 70.3885 36.2513 70.3885 35.598V35.458C70.3885 34.8047 70.2112 34.3053 69.8565 33.96C69.5112 33.6053 69.0632 33.428 68.5125 33.428C67.9712 33.428 67.5232 33.6053 67.1685 33.96C66.8138 34.3053 66.6365 34.8047 66.6365 35.458V35.598C66.6365 36.2513 66.8138 36.7553 67.1685 37.11C67.5232 37.4553 67.9712 37.628 68.5125 37.628ZM77.8955 39L76.9155 32.056H78.6655L79.2815 37.81H79.5335L80.4295 32.056H83.2575L84.1535 37.81H84.4055L85.0215 32.056H86.7715L85.7915 39H82.8655L81.9695 33.246H81.7175L80.8215 39H77.8955ZM90.47 39.196C89.9753 39.196 89.532 39.112 89.14 38.944C88.748 38.7667 88.4353 38.5147 88.202 38.188C87.978 37.852 87.866 37.446 87.866 36.97C87.866 36.494 87.978 36.0973 88.202 35.78C88.4353 35.4533 88.7527 35.2107 89.154 35.052C89.5647 34.884 90.0313 34.8 90.554 34.8H92.458V34.408C92.458 34.0813 92.3553 33.8153 92.15 33.61C91.9447 33.3953 91.618 33.288 91.17 33.288C90.7313 33.288 90.4047 33.3907 90.19 33.596C89.9753 33.792 89.8353 34.0487 89.77 34.366L88.146 33.82C88.258 33.4653 88.4353 33.1433 88.678 32.854C88.93 32.5553 89.2613 32.3173 89.672 32.14C90.092 31.9533 90.6007 31.86 91.198 31.86C92.1127 31.86 92.836 32.0887 93.368 32.546C93.9 33.0033 94.166 33.666 94.166 34.534V37.124C94.166 37.404 94.2967 37.544 94.558 37.544H95.118V39H93.942C93.5967 39 93.312 38.916 93.088 38.748C92.864 38.58 92.752 38.356 92.752 38.076V38.062H92.486C92.4487 38.174 92.3647 38.3233 92.234 38.51C92.1033 38.6873 91.898 38.846 91.618 38.986C91.338 39.126 90.9553 39.196 90.47 39.196ZM90.778 37.768C91.2727 37.768 91.674 37.6327 91.982 37.362C92.2993 37.082 92.458 36.7133 92.458 36.256V36.116H90.68C90.3533 36.116 90.0967 36.186 89.91 36.326C89.7233 36.466 89.63 36.662 89.63 36.914C89.63 37.166 89.728 37.3713 89.924 37.53C90.12 37.6887 90.4047 37.768 90.778 37.768ZM96.4077 39V29.2H98.1717V39H96.4077ZM100.126 39V29.2H101.89V39H100.126ZM107.009 39.196C106.319 39.196 105.707 39.0513 105.175 38.762C104.653 38.4633 104.242 38.048 103.943 37.516C103.654 36.9747 103.509 36.34 103.509 35.612V35.444C103.509 34.716 103.654 34.086 103.943 33.554C104.233 33.0127 104.639 32.5973 105.161 32.308C105.684 32.0093 106.291 31.86 106.981 31.86C107.663 31.86 108.255 32.014 108.759 32.322C109.263 32.6207 109.655 33.0407 109.935 33.582C110.215 34.114 110.355 34.7347 110.355 35.444V36.046H105.301C105.32 36.522 105.497 36.9093 105.833 37.208C106.169 37.5067 106.58 37.656 107.065 37.656C107.56 37.656 107.924 37.5487 108.157 37.334C108.391 37.1193 108.568 36.8813 108.689 36.62L110.131 37.376C110.001 37.6187 109.809 37.8847 109.557 38.174C109.315 38.454 108.988 38.6967 108.577 38.902C108.167 39.098 107.644 39.196 107.009 39.196ZM105.315 34.73H108.563C108.526 34.3287 108.363 34.0067 108.073 33.764C107.793 33.5213 107.425 33.4 106.967 33.4C106.491 33.4 106.113 33.5213 105.833 33.764C105.553 34.0067 105.381 34.3287 105.315 34.73ZM114.367 39C113.909 39 113.536 38.86 113.247 38.58C112.967 38.2907 112.827 37.908 112.827 37.432V33.512H111.091V32.056H112.827V29.9H114.591V32.056H116.495V33.512H114.591V37.124C114.591 37.404 114.721 37.544 114.983 37.544H116.327V39H114.367ZM124.908 39.196C124.236 39.196 123.625 39.056 123.074 38.776C122.533 38.496 122.103 38.09 121.786 37.558C121.469 37.026 121.31 36.382 121.31 35.626V35.43C121.31 34.674 121.469 34.03 121.786 33.498C122.103 32.966 122.533 32.56 123.074 32.28C123.625 32 124.236 31.86 124.908 31.86C125.571 31.86 126.14 31.9767 126.616 32.21C127.092 32.4433 127.475 32.7653 127.764 33.176C128.063 33.5773 128.259 34.0347 128.352 34.548L126.644 34.912C126.607 34.632 126.523 34.38 126.392 34.156C126.261 33.932 126.075 33.7547 125.832 33.624C125.599 33.4933 125.305 33.428 124.95 33.428C124.595 33.428 124.273 33.5073 123.984 33.666C123.704 33.8153 123.48 34.044 123.312 34.352C123.153 34.6507 123.074 35.0193 123.074 35.458V35.598C123.074 36.0367 123.153 36.41 123.312 36.718C123.48 37.0167 123.704 37.2453 123.984 37.404C124.273 37.5533 124.595 37.628 124.95 37.628C125.482 37.628 125.883 37.4927 126.154 37.222C126.434 36.942 126.611 36.578 126.686 36.13L128.394 36.536C128.273 37.0307 128.063 37.4833 127.764 37.894C127.475 38.2953 127.092 38.6127 126.616 38.846C126.14 39.0793 125.571 39.196 124.908 39.196ZM133.153 39.196C132.462 39.196 131.842 39.056 131.291 38.776C130.74 38.496 130.306 38.09 129.989 37.558C129.672 37.026 129.513 36.3867 129.513 35.64V35.416C129.513 34.6693 129.672 34.03 129.989 33.498C130.306 32.966 130.74 32.56 131.291 32.28C131.842 32 132.462 31.86 133.153 31.86C133.844 31.86 134.464 32 135.015 32.28C135.566 32.56 136 32.966 136.317 33.498C136.634 34.03 136.793 34.6693 136.793 35.416V35.64C136.793 36.3867 136.634 37.026 136.317 37.558C136 38.09 135.566 38.496 135.015 38.776C134.464 39.056 133.844 39.196 133.153 39.196ZM133.153 37.628C133.694 37.628 134.142 37.4553 134.497 37.11C134.852 36.7553 135.029 36.2513 135.029 35.598V35.458C135.029 34.8047 134.852 34.3053 134.497 33.96C134.152 33.6053 133.704 33.428 133.153 33.428C132.612 33.428 132.164 33.6053 131.809 33.96C131.454 34.3053 131.277 34.8047 131.277 35.458V35.598C131.277 36.2513 131.454 36.7553 131.809 37.11C132.164 37.4553 132.612 37.628 133.153 37.628ZM138.421 39V32.056H140.157V32.966H140.409C140.521 32.7233 140.731 32.4947 141.039 32.28C141.347 32.056 141.814 31.944 142.439 31.944C142.981 31.944 143.452 32.07 143.853 32.322C144.264 32.5647 144.581 32.9053 144.805 33.344C145.029 33.7733 145.141 34.2773 145.141 34.856V39H143.377V34.996C143.377 34.4733 143.247 34.0813 142.985 33.82C142.733 33.5587 142.369 33.428 141.893 33.428C141.352 33.428 140.932 33.61 140.633 33.974C140.335 34.3287 140.185 34.828 140.185 35.472V39H138.421ZM147.048 39V32.056H148.784V32.966H149.036C149.148 32.7233 149.358 32.4947 149.666 32.28C149.974 32.056 150.441 31.944 151.066 31.944C151.608 31.944 152.079 32.07 152.48 32.322C152.891 32.5647 153.208 32.9053 153.432 33.344C153.656 33.7733 153.768 34.2773 153.768 34.856V39H152.004V34.996C152.004 34.4733 151.874 34.0813 151.612 33.82C151.36 33.5587 150.996 33.428 150.52 33.428C149.979 33.428 149.559 33.61 149.26 33.974C148.962 34.3287 148.812 34.828 148.812 35.472V39H147.048ZM158.839 39.196C158.149 39.196 157.537 39.0513 157.005 38.762C156.483 38.4633 156.072 38.048 155.773 37.516C155.484 36.9747 155.339 36.34 155.339 35.612V35.444C155.339 34.716 155.484 34.086 155.773 33.554C156.063 33.0127 156.469 32.5973 156.991 32.308C157.514 32.0093 158.121 31.86 158.811 31.86C159.493 31.86 160.085 32.014 160.589 32.322C161.093 32.6207 161.485 33.0407 161.765 33.582C162.045 34.114 162.185 34.7347 162.185 35.444V36.046H157.131C157.15 36.522 157.327 36.9093 157.663 37.208C157.999 37.5067 158.41 37.656 158.895 37.656C159.39 37.656 159.754 37.5487 159.987 37.334C160.221 37.1193 160.398 36.8813 160.519 36.62L161.961 37.376C161.831 37.6187 161.639 37.8847 161.387 38.174C161.145 38.454 160.818 38.6967 160.407 38.902C159.997 39.098 159.474 39.196 158.839 39.196ZM157.145 34.73H160.393C160.356 34.3287 160.193 34.0067 159.903 33.764C159.623 33.5213 159.255 33.4 158.797 33.4C158.321 33.4 157.943 33.5213 157.663 33.764C157.383 34.0067 157.211 34.3287 157.145 34.73ZM167.017 39.196C166.345 39.196 165.734 39.056 165.183 38.776C164.642 38.496 164.213 38.09 163.895 37.558C163.578 37.026 163.419 36.382 163.419 35.626V35.43C163.419 34.674 163.578 34.03 163.895 33.498C164.213 32.966 164.642 32.56 165.183 32.28C165.734 32 166.345 31.86 167.017 31.86C167.68 31.86 168.249 31.9767 168.725 32.21C169.201 32.4433 169.584 32.7653 169.873 33.176C170.172 33.5773 170.368 34.0347 170.461 34.548L168.753 34.912C168.716 34.632 168.632 34.38 168.501 34.156C168.371 33.932 168.184 33.7547 167.941 33.624C167.708 33.4933 167.414 33.428 167.059 33.428C166.705 33.428 166.383 33.5073 166.093 33.666C165.813 33.8153 165.589 34.044 165.421 34.352C165.263 34.6507 165.183 35.0193 165.183 35.458V35.598C165.183 36.0367 165.263 36.41 165.421 36.718C165.589 37.0167 165.813 37.2453 166.093 37.404C166.383 37.5533 166.705 37.628 167.059 37.628C167.591 37.628 167.993 37.4927 168.263 37.222C168.543 36.942 168.721 36.578 168.795 36.13L170.503 36.536C170.382 37.0307 170.172 37.4833 169.873 37.894C169.584 38.2953 169.201 38.6127 168.725 38.846C168.249 39.0793 167.68 39.196 167.017 39.196ZM174.4 39C173.942 39 173.569 38.86 173.28 38.58C173 38.2907 172.86 37.908 172.86 37.432V33.512H171.124V32.056H172.86V29.9H174.624V32.056H176.528V33.512H174.624V37.124C174.624 37.404 174.754 37.544 175.016 37.544H176.36V39H174.4ZM178.125 39V32.056H179.889V39H178.125ZM179.007 31.244C178.689 31.244 178.419 31.1413 178.195 30.936C177.98 30.7307 177.873 30.46 177.873 30.124C177.873 29.788 177.98 29.5173 178.195 29.312C178.419 29.1067 178.689 29.004 179.007 29.004C179.333 29.004 179.604 29.1067 179.819 29.312C180.033 29.5173 180.141 29.788 180.141 30.124C180.141 30.46 180.033 30.7307 179.819 30.936C179.604 31.1413 179.333 31.244 179.007 31.244ZM185.147 39.196C184.457 39.196 183.836 39.056 183.285 38.776C182.735 38.496 182.301 38.09 181.983 37.558C181.666 37.026 181.507 36.3867 181.507 35.64V35.416C181.507 34.6693 181.666 34.03 181.983 33.498C182.301 32.966 182.735 32.56 183.285 32.28C183.836 32 184.457 31.86 185.147 31.86C185.838 31.86 186.459 32 187.009 32.28C187.56 32.56 187.994 32.966 188.311 33.498C188.629 34.03 188.787 34.6693 188.787 35.416V35.64C188.787 36.3867 188.629 37.026 188.311 37.558C187.994 38.09 187.56 38.496 187.009 38.776C186.459 39.056 185.838 39.196 185.147 39.196ZM185.147 37.628C185.689 37.628 186.137 37.4553 186.491 37.11C186.846 36.7553 187.023 36.2513 187.023 35.598V35.458C187.023 34.8047 186.846 34.3053 186.491 33.96C186.146 33.6053 185.698 33.428 185.147 33.428C184.606 33.428 184.158 33.6053 183.803 33.96C183.449 34.3053 183.271 34.8047 183.271 35.458V35.598C183.271 36.2513 183.449 36.7553 183.803 37.11C184.158 37.4553 184.606 37.628 185.147 37.628ZM190.416 39V32.056H192.152V32.966H192.404C192.516 32.7233 192.726 32.4947 193.034 32.28C193.342 32.056 193.808 31.944 194.434 31.944C194.975 31.944 195.446 32.07 195.848 32.322C196.258 32.5647 196.576 32.9053 196.8 33.344C197.024 33.7733 197.136 34.2773 197.136 34.856V39H195.372V34.996C195.372 34.4733 195.241 34.0813 194.98 33.82C194.728 33.5587 194.364 33.428 193.888 33.428C193.346 33.428 192.926 33.61 192.628 33.974C192.329 34.3287 192.18 34.828 192.18 35.472V39H190.416ZM201.927 39.196C201.021 39.196 200.279 39 199.701 38.608C199.122 38.216 198.772 37.656 198.651 36.928L200.275 36.508C200.34 36.8347 200.447 37.0913 200.597 37.278C200.755 37.4647 200.947 37.6 201.171 37.684C201.404 37.7587 201.656 37.796 201.927 37.796C202.337 37.796 202.641 37.726 202.837 37.586C203.033 37.4367 203.131 37.2547 203.131 37.04C203.131 36.8253 203.037 36.662 202.851 36.55C202.664 36.4287 202.365 36.3307 201.955 36.256L201.562 36.186C201.077 36.0927 200.634 35.9667 200.233 35.808C199.831 35.64 199.509 35.4113 199.267 35.122C199.024 34.8327 198.903 34.4593 198.903 34.002C198.903 33.3113 199.155 32.784 199.659 32.42C200.163 32.0467 200.825 31.86 201.647 31.86C202.421 31.86 203.065 32.0327 203.579 32.378C204.092 32.7233 204.428 33.176 204.587 33.736L202.949 34.24C202.874 33.8853 202.72 33.6333 202.487 33.484C202.263 33.3347 201.983 33.26 201.647 33.26C201.311 33.26 201.054 33.3207 200.877 33.442C200.699 33.554 200.611 33.7127 200.611 33.918C200.611 34.142 200.704 34.31 200.891 34.422C201.077 34.5247 201.329 34.604 201.647 34.66L202.039 34.73C202.561 34.8233 203.033 34.9493 203.453 35.108C203.882 35.2573 204.218 35.4767 204.461 35.766C204.713 36.046 204.839 36.4287 204.839 36.914C204.839 37.642 204.573 38.2067 204.041 38.608C203.518 39 202.813 39.196 201.927 39.196ZM207.504 39.196C207.122 39.196 206.8 39.0747 206.538 38.832C206.286 38.58 206.16 38.258 206.16 37.866C206.16 37.474 206.286 37.1567 206.538 36.914C206.8 36.662 207.122 36.536 207.504 36.536C207.878 36.536 208.19 36.662 208.442 36.914C208.694 37.1567 208.82 37.474 208.82 37.866C208.82 38.258 208.694 38.58 208.442 38.832C208.19 39.0747 207.878 39.196 207.504 39.196ZM67.3103 56.196C66.3023 56.196 65.4996 55.9207 64.9023 55.37C64.3143 54.8193 64.0203 54.0493 64.0203 53.06V52.136H65.8683V53.06C65.8683 53.4987 65.9896 53.844 66.2323 54.096C66.4749 54.3387 66.8156 54.46 67.2543 54.46C67.6649 54.46 67.9823 54.3387 68.2063 54.096C68.4396 53.8533 68.5563 53.508 68.5563 53.06V47.88H66.8763V46.2H71.5243V47.88H70.4043V53.06C70.4043 54.0773 70.1289 54.8567 69.5783 55.398C69.0276 55.93 68.2716 56.196 67.3103 56.196ZM75.2647 56.112C74.7233 56.112 74.2473 55.9907 73.8367 55.748C73.4353 55.496 73.1227 55.1507 72.8987 54.712C72.6747 54.2733 72.5627 53.7693 72.5627 53.2V49.056H74.3267V53.06C74.3267 53.5827 74.4527 53.9747 74.7047 54.236C74.966 54.4973 75.3347 54.628 75.8107 54.628C76.352 54.628 76.772 54.4507 77.0707 54.096C77.3693 53.732 77.5187 53.228 77.5187 52.584V49.056H79.2827V56H77.5467V55.09H77.2947C77.1827 55.3233 76.9727 55.552 76.6647 55.776C76.3567 56 75.89 56.112 75.2647 56.112ZM84.1296 56.196C83.2243 56.196 82.4823 56 81.9036 55.608C81.325 55.216 80.975 54.656 80.8536 53.928L82.4776 53.508C82.543 53.8347 82.6503 54.0913 82.7996 54.278C82.9583 54.4647 83.1496 54.6 83.3736 54.684C83.607 54.7587 83.859 54.796 84.1296 54.796C84.5403 54.796 84.8436 54.726 85.0396 54.586C85.2356 54.4367 85.3336 54.2547 85.3336 54.04C85.3336 53.8253 85.2403 53.662 85.0536 53.55C84.867 53.4287 84.5683 53.3307 84.1576 53.256L83.7656 53.186C83.2803 53.0927 82.837 52.9667 82.4356 52.808C82.0343 52.64 81.7123 52.4113 81.4696 52.122C81.227 51.8327 81.1056 51.4593 81.1056 51.002C81.1056 50.3113 81.3576 49.784 81.8616 49.42C82.3656 49.0467 83.0283 48.86 83.8496 48.86C84.6243 48.86 85.2683 49.0327 85.7816 49.378C86.295 49.7233 86.631 50.176 86.7896 50.736L85.1516 51.24C85.077 50.8853 84.923 50.6333 84.6896 50.484C84.4656 50.3347 84.1856 50.26 83.8496 50.26C83.5136 50.26 83.257 50.3207 83.0796 50.442C82.9023 50.554 82.8136 50.7127 82.8136 50.918C82.8136 51.142 82.907 51.31 83.0936 51.422C83.2803 51.5247 83.5323 51.604 83.8496 51.66L84.2416 51.73C84.7643 51.8233 85.2356 51.9493 85.6556 52.108C86.085 52.2573 86.421 52.4767 86.6636 52.766C86.9156 53.046 87.0416 53.4287 87.0416 53.914C87.0416 54.642 86.7756 55.2067 86.2436 55.608C85.721 56 85.0163 56.196 84.1296 56.196ZM91.1107 56C90.6534 56 90.28 55.86 89.9907 55.58C89.7107 55.2907 89.5707 54.908 89.5707 54.432V50.512H87.8347V49.056H89.5707V46.9H91.3347V49.056H93.2387V50.512H91.3347V54.124C91.3347 54.404 91.4654 54.544 91.7267 54.544H93.0707V56H91.1107ZM101.722 56.196C101.05 56.196 100.439 56.0467 99.8882 55.748C99.3468 55.44 98.9128 54.9967 98.5862 54.418C98.2688 53.83 98.1102 53.116 98.1102 52.276V49.924C98.1102 48.664 98.4648 47.698 99.1742 47.026C99.8835 46.3447 100.845 46.004 102.058 46.004C103.262 46.004 104.191 46.326 104.844 46.97C105.507 47.6047 105.838 48.468 105.838 49.56V49.616H104.018V49.504C104.018 49.1587 103.943 48.846 103.794 48.566C103.654 48.286 103.439 48.0667 103.15 47.908C102.861 47.74 102.497 47.656 102.058 47.656C101.405 47.656 100.891 47.8567 100.518 48.258C100.145 48.6593 99.9582 49.2053 99.9582 49.896V52.304C99.9582 52.9853 100.145 53.536 100.518 53.956C100.891 54.3667 101.414 54.572 102.086 54.572C102.758 54.572 103.248 54.3947 103.556 54.04C103.864 53.6853 104.018 53.2373 104.018 52.696V52.556H101.694V50.988H105.838V56H104.13V55.062H103.878C103.813 55.2207 103.705 55.3887 103.556 55.566C103.416 55.7433 103.201 55.8927 102.912 56.014C102.623 56.1353 102.226 56.196 101.722 56.196ZM110.964 56.196C110.273 56.196 109.652 56.056 109.102 55.776C108.551 55.496 108.117 55.09 107.8 54.558C107.482 54.026 107.324 53.3867 107.324 52.64V52.416C107.324 51.6693 107.482 51.03 107.8 50.498C108.117 49.966 108.551 49.56 109.102 49.28C109.652 49 110.273 48.86 110.964 48.86C111.654 48.86 112.275 49 112.826 49.28C113.376 49.56 113.81 49.966 114.128 50.498C114.445 51.03 114.604 51.6693 114.604 52.416V52.64C114.604 53.3867 114.445 54.026 114.128 54.558C113.81 55.09 113.376 55.496 112.826 55.776C112.275 56.056 111.654 56.196 110.964 56.196ZM110.964 54.628C111.505 54.628 111.953 54.4553 112.308 54.11C112.662 53.7553 112.84 53.2513 112.84 52.598V52.458C112.84 51.8047 112.662 51.3053 112.308 50.96C111.962 50.6053 111.514 50.428 110.964 50.428C110.422 50.428 109.974 50.6053 109.62 50.96C109.265 51.3053 109.088 51.8047 109.088 52.458V52.598C109.088 53.2513 109.265 53.7553 109.62 54.11C109.974 54.4553 110.422 54.628 110.964 54.628ZM119.536 56.196C118.845 56.196 118.225 56.056 117.674 55.776C117.123 55.496 116.689 55.09 116.372 54.558C116.055 54.026 115.896 53.3867 115.896 52.64V52.416C115.896 51.6693 116.055 51.03 116.372 50.498C116.689 49.966 117.123 49.56 117.674 49.28C118.225 49 118.845 48.86 119.536 48.86C120.227 48.86 120.847 49 121.398 49.28C121.949 49.56 122.383 49.966 122.7 50.498C123.017 51.03 123.176 51.6693 123.176 52.416V52.64C123.176 53.3867 123.017 54.026 122.7 54.558C122.383 55.09 121.949 55.496 121.398 55.776C120.847 56.056 120.227 56.196 119.536 56.196ZM119.536 54.628C120.077 54.628 120.525 54.4553 120.88 54.11C121.235 53.7553 121.412 53.2513 121.412 52.598V52.458C121.412 51.8047 121.235 51.3053 120.88 50.96C120.535 50.6053 120.087 50.428 119.536 50.428C118.995 50.428 118.547 50.6053 118.192 50.96C117.837 51.3053 117.66 51.8047 117.66 52.458V52.598C117.66 53.2513 117.837 53.7553 118.192 54.11C118.547 54.4553 118.995 54.628 119.536 54.628ZM124.468 52.556V52.332C124.468 51.604 124.613 50.9833 124.902 50.47C125.192 49.9473 125.574 49.5507 126.05 49.28C126.536 49 127.063 48.86 127.632 48.86C128.267 48.86 128.748 48.972 129.074 49.196C129.401 49.42 129.639 49.6533 129.788 49.896H130.04V49.056H131.776V57.232C131.776 57.708 131.636 58.086 131.356 58.366C131.076 58.6553 130.703 58.8 130.236 58.8H125.588V57.26H129.62C129.882 57.26 130.012 57.12 130.012 56.84V55.034H129.76C129.667 55.1833 129.536 55.3373 129.368 55.496C129.2 55.6453 128.976 55.7713 128.696 55.874C128.416 55.9767 128.062 56.028 127.632 56.028C127.063 56.028 126.536 55.8927 126.05 55.622C125.574 55.342 125.192 54.9453 124.902 54.432C124.613 53.9093 124.468 53.284 124.468 52.556ZM128.136 54.488C128.678 54.488 129.13 54.3153 129.494 53.97C129.858 53.6247 130.04 53.1393 130.04 52.514V52.374C130.04 51.7393 129.858 51.254 129.494 50.918C129.14 50.5727 128.687 50.4 128.136 50.4C127.595 50.4 127.142 50.5727 126.778 50.918C126.414 51.254 126.232 51.7393 126.232 52.374V52.514C126.232 53.1393 126.414 53.6247 126.778 53.97C127.142 54.3153 127.595 54.488 128.136 54.488ZM133.732 56V46.2H135.496V56H133.732ZM140.615 56.196C139.924 56.196 139.313 56.0513 138.781 55.762C138.258 55.4633 137.847 55.048 137.549 54.516C137.259 53.9747 137.115 53.34 137.115 52.612V52.444C137.115 51.716 137.259 51.086 137.549 50.554C137.838 50.0127 138.244 49.5973 138.767 49.308C139.289 49.0093 139.896 48.86 140.587 48.86C141.268 48.86 141.861 49.014 142.365 49.322C142.869 49.6207 143.261 50.0407 143.541 50.582C143.821 51.114 143.961 51.7347 143.961 52.444V53.046H138.907C138.925 53.522 139.103 53.9093 139.439 54.208C139.775 54.5067 140.185 54.656 140.671 54.656C141.165 54.656 141.529 54.5487 141.763 54.334C141.996 54.1193 142.173 53.8813 142.295 53.62L143.737 54.376C143.606 54.6187 143.415 54.8847 143.163 55.174C142.92 55.454 142.593 55.6967 142.183 55.902C141.772 56.098 141.249 56.196 140.615 56.196ZM138.921 51.73H142.169C142.131 51.3287 141.968 51.0067 141.679 50.764C141.399 50.5213 141.03 50.4 140.573 50.4C140.097 50.4 139.719 50.5213 139.439 50.764C139.159 51.0067 138.986 51.3287 138.921 51.73ZM152.431 56.196C151.675 56.196 151.008 56.0607 150.429 55.79C149.851 55.5193 149.398 55.132 149.071 54.628C148.745 54.124 148.581 53.5173 148.581 52.808V52.416H150.401V52.808C150.401 53.396 150.583 53.8393 150.947 54.138C151.311 54.4273 151.806 54.572 152.431 54.572C153.066 54.572 153.537 54.446 153.845 54.194C154.163 53.942 154.321 53.62 154.321 53.228C154.321 52.9573 154.242 52.738 154.083 52.57C153.934 52.402 153.71 52.2667 153.411 52.164C153.122 52.052 152.767 51.9493 152.347 51.856L152.025 51.786C151.353 51.6367 150.775 51.45 150.289 51.226C149.813 50.9927 149.445 50.6893 149.183 50.316C148.931 49.9427 148.805 49.4573 148.805 48.86C148.805 48.2627 148.945 47.754 149.225 47.334C149.515 46.9047 149.916 46.578 150.429 46.354C150.952 46.1207 151.563 46.004 152.263 46.004C152.963 46.004 153.584 46.1253 154.125 46.368C154.676 46.6013 155.105 46.956 155.413 47.432C155.731 47.8987 155.889 48.4867 155.889 49.196V49.616H154.069V49.196C154.069 48.8227 153.995 48.524 153.845 48.3C153.705 48.0667 153.5 47.8987 153.229 47.796C152.959 47.684 152.637 47.628 152.263 47.628C151.703 47.628 151.288 47.7353 151.017 47.95C150.756 48.1553 150.625 48.44 150.625 48.804C150.625 49.0467 150.686 49.252 150.807 49.42C150.938 49.588 151.129 49.728 151.381 49.84C151.633 49.952 151.955 50.05 152.347 50.134L152.669 50.204C153.369 50.3533 153.976 50.5447 154.489 50.778C155.012 51.0113 155.418 51.3193 155.707 51.702C155.997 52.0847 156.141 52.5747 156.141 53.172C156.141 53.7693 155.987 54.2967 155.679 54.754C155.381 55.202 154.951 55.5567 154.391 55.818C153.841 56.07 153.187 56.196 152.431 56.196ZM157.576 56V49.056H159.34V56H157.576ZM158.458 48.244C158.14 48.244 157.87 48.1413 157.646 47.936C157.431 47.7307 157.324 47.46 157.324 47.124C157.324 46.788 157.431 46.5173 157.646 46.312C157.87 46.1067 158.14 46.004 158.458 46.004C158.784 46.004 159.055 46.1067 159.27 46.312C159.484 46.5173 159.592 46.788 159.592 47.124C159.592 47.46 159.484 47.7307 159.27 47.936C159.055 48.1413 158.784 48.244 158.458 48.244ZM160.958 52.556V52.332C160.958 51.604 161.103 50.9833 161.392 50.47C161.682 49.9473 162.064 49.5507 162.54 49.28C163.026 49 163.553 48.86 164.122 48.86C164.757 48.86 165.238 48.972 165.564 49.196C165.891 49.42 166.129 49.6533 166.278 49.896H166.53V49.056H168.266V57.232C168.266 57.708 168.126 58.086 167.846 58.366C167.566 58.6553 167.193 58.8 166.726 58.8H162.078V57.26H166.11C166.372 57.26 166.502 57.12 166.502 56.84V55.034H166.25C166.157 55.1833 166.026 55.3373 165.858 55.496C165.69 55.6453 165.466 55.7713 165.186 55.874C164.906 55.9767 164.552 56.028 164.122 56.028C163.553 56.028 163.026 55.8927 162.54 55.622C162.064 55.342 161.682 54.9453 161.392 54.432C161.103 53.9093 160.958 53.284 160.958 52.556ZM164.626 54.488C165.168 54.488 165.62 54.3153 165.984 53.97C166.348 53.6247 166.53 53.1393 166.53 52.514V52.374C166.53 51.7393 166.348 51.254 165.984 50.918C165.63 50.5727 165.177 50.4 164.626 50.4C164.085 50.4 163.632 50.5727 163.268 50.918C162.904 51.254 162.722 51.7393 162.722 52.374V52.514C162.722 53.1393 162.904 53.6247 163.268 53.97C163.632 54.3153 164.085 54.488 164.626 54.488ZM170.222 56V49.056H171.958V49.966H172.21C172.322 49.7233 172.532 49.4947 172.84 49.28C173.148 49.056 173.615 48.944 174.24 48.944C174.782 48.944 175.253 49.07 175.654 49.322C176.065 49.5647 176.382 49.9053 176.606 50.344C176.83 50.7733 176.942 51.2773 176.942 51.856V56H175.178V51.996C175.178 51.4733 175.048 51.0813 174.786 50.82C174.534 50.5587 174.17 50.428 173.694 50.428C173.153 50.428 172.733 50.61 172.434 50.974C172.136 51.3287 171.986 51.828 171.986 52.472V56H170.222ZM178.821 53.228V51.632H182.965V53.228H178.821ZM184.892 56V49.056H186.656V56H184.892ZM185.774 48.244C185.457 48.244 185.186 48.1413 184.962 47.936C184.747 47.7307 184.64 47.46 184.64 47.124C184.64 46.788 184.747 46.5173 184.962 46.312C185.186 46.1067 185.457 46.004 185.774 46.004C186.101 46.004 186.371 46.1067 186.586 46.312C186.801 46.5173 186.908 46.788 186.908 47.124C186.908 47.46 186.801 47.7307 186.586 47.936C186.371 48.1413 186.101 48.244 185.774 48.244ZM188.611 56V49.056H190.347V49.966H190.599C190.711 49.7233 190.921 49.4947 191.229 49.28C191.537 49.056 192.004 48.944 192.629 48.944C193.17 48.944 193.642 49.07 194.043 49.322C194.454 49.5647 194.771 49.9053 194.995 50.344C195.219 50.7733 195.331 51.2773 195.331 51.856V56H193.567V51.996C193.567 51.4733 193.436 51.0813 193.175 50.82C192.923 50.5587 192.559 50.428 192.083 50.428C191.542 50.428 191.122 50.61 190.823 50.974C190.524 51.3287 190.375 51.828 190.375 52.472V56H188.611ZM198.358 56.196C197.975 56.196 197.653 56.0747 197.392 55.832C197.14 55.58 197.014 55.258 197.014 54.866C197.014 54.474 197.14 54.1567 197.392 53.914C197.653 53.662 197.975 53.536 198.358 53.536C198.731 53.536 199.044 53.662 199.296 53.914C199.548 54.1567 199.674 54.474 199.674 54.866C199.674 55.258 199.548 55.58 199.296 55.832C199.044 56.0747 198.731 56.196 198.358 56.196Z" fill="white"/>
<defs>
<filter id="filter0_f_708_187" x="56" y="157" width="184" height="39" filterUnits="userSpaceOnUse" color-interpolation-filters="sRGB">
<feFlood flood-opacity="0" result="BackgroundImageFix"/>
<feBlend mode="normal" in="SourceGraphic" in2="BackgroundImageFix" result="shape"/>
<feGaussianBlur stdDeviation="8.5" result="effect1_foregroundBlur_708_187"/>
</filter>
<filter id="filter1_d_708_187" x="132" y="68" width="26" height="110" filterUnits="userSpaceOnUse" color-interpolation-filters="sRGB">
<feFlood flood-opacity="0" result="BackgroundImageFix"/>
<feColorMatrix in="SourceAlpha" type="matrix" values="0 0 0 0 0 0 0 0 0 0 0 0 0 0 0 0 0 0 127 0" result="hardAlpha"/>
<feOffset dx="4"/>
<feComposite in2="hardAlpha" operator="out"/>
<feColorMatrix type="matrix" values="0 0 0 0 0.670588 0 0 0 0 0.427451 0 0 0 0 0.321569 0 0 0 1 0"/>
<feBlend mode="normal" in2="BackgroundImageFix" result="effect1_dropShadow_708_187"/>
<feBlend mode="normal" in="SourceGraphic" in2="effect1_dropShadow_708_187" result="shape"/>
</filter>
<filter id="filter2_d_708_187" x="0.582031" y="0" width="244.418" height="88" filterUnits="userSpaceOnUse" color-interpolation-filters="sRGB">
<feFlood flood-opacity="0" result="BackgroundImageFix"/>
<feColorMatrix in="SourceAlpha" type="matrix" values="0 0 0 0 0 0 0 0 0 0 0 0 0 0 0 0 0 0 127 0" result="hardAlpha"/>
<feOffset dx="4" dy="4"/>
<feComposite in2="hardAlpha" operator="out"/>
<feColorMatrix type="matrix" values="0 0 0 0 0 0 0 0 0 0.234679 0 0 0 0 0.206517 0 0 0 1 0"/>
<feBlend mode="normal" in2="BackgroundImageFix" result="effect1_dropShadow_708_187"/>
<feBlend mode="normal" in="SourceGraphic" in2="effect1_dropShadow_708_187" result="shape"/>
</filter>
<clipPath id="clip0_708_187">
<rect width="291.035" height="90.218" fill="white" transform="translate(2 133)"/>
</clipPath>
<clipPath id="clip1_708_187">
<rect width="291.033" height="90.218" fill="white" transform="translate(2.00195 133)"/>
</clipPath>
<clipPath id="clip2_708_187">
<rect x="132" y="68" width="22" height="110" rx="6" fill="white"/>
</clipPath>
</defs>
</svg>
