<svg width="216" height="107" viewBox="0 0 216 107" fill="none" xmlns="http://www.w3.org/2000/svg">
<path d="M111.635 106.592C140.999 106.592 164.803 82.8447 164.803 53.551C164.803 24.2573 140.999 0.51001 111.635 0.51001C82.2709 0.51001 58.4668 24.2573 58.4668 53.551C58.4668 82.8447 82.2709 106.592 111.635 106.592Z" fill="#008A79"/>
<path d="M181.833 52.0014L181.834 52.0014C193.12 55.2738 202.961 59.3291 211.11 63.229C148.574 63.8823 86.0332 64.5311 23.4915 65.1787C33.463 63.9438 42.3485 62.475 50.094 60.9922C63.1772 58.49 73.9325 55.772 83.6546 53.3151C88.2767 52.147 92.6653 51.0379 96.9595 50.0391C110.305 46.9351 122.858 44.8621 139.02 45.2737C154.872 45.6812 169.249 48.3509 181.833 52.0014ZM14.756 65.2692L14.745 65.163C28.255 63.775 40.0129 61.904 49.9059 60.01C62.9619 57.5131 73.6635 54.8084 83.3713 52.3549C102.341 47.5607 117.515 43.7256 139.045 44.274L14.756 65.2692Z" fill="#B2FFF6" stroke="#008A79" stroke-width="2"/>
</svg>
