<svg width="61" height="80" viewBox="0 0 61 80" fill="none" xmlns="http://www.w3.org/2000/svg">
<path d="M60.9089 48.2901C60.9031 48.1298 60.8964 47.9675 60.8881 47.8037C60.8808 47.6581 60.8723 47.5114 60.8621 47.3638C60.8476 47.1078 60.8297 46.852 60.8079 46.5923L60.8008 46.5166C60.7903 46.3725 60.7755 46.2247 60.7614 46.0805C60.7466 45.9075 60.7326 45.7345 60.7108 45.558C60.6748 45.2082 60.6351 44.855 60.5882 44.4981L60.5812 44.4368V44.4333C60.4474 43.3808 60.2746 42.2958 60.0694 41.182C59.8241 39.8664 59.5288 38.5147 59.1859 37.1376C59.0598 36.6258 58.9264 36.1105 58.7895 35.5949C57.2759 30.0114 55.0192 24.136 52.1934 18.8049C51.7678 17.9976 51.3285 17.2045 50.874 16.4259C49.6667 14.3388 48.3688 12.3635 46.9918 10.5541C46.6313 10.0784 46.2638 9.60961 45.889 9.15904C41.3654 3.65859 36.092 0 30.4688 0C25.754 0 21.2955 2.5628 17.3197 6.62159C16.8871 7.05404 16.4689 7.50461 16.0581 7.97331C14.1225 10.154 12.3131 12.6772 10.6548 15.4167C10.1754 16.2061 9.70687 17.0171 9.25634 17.8425C5.78166 24.1649 3.11066 31.3451 1.54986 37.9306C1.32635 38.8751 1.12815 39.8051 0.947918 40.7169C0.897586 40.9729 0.850429 41.2288 0.803605 41.4812C0.306213 44.2349 0.032372 46.8231 0.00350926 49.1299C6.22112e-07 49.2633 0 49.3968 0 49.53C0 51.2135 0.13692 52.8679 0.40341 54.4792C0.447059 54.7424 0.493507 55.0055 0.544215 55.2686V55.2721C0.782176 56.5554 1.11023 57.8097 1.51014 59.0317L1.51365 59.0425C1.56786 59.2082 1.62559 59.374 1.68331 59.54C1.6849 59.5413 1.68649 59.5426 1.68824 59.5439C1.76727 59.7769 1.84964 60.0098 1.93535 60.2393V60.2428C6.27203 71.7846 17.4133 79.9994 30.4688 79.9994C42.7206 79.9994 53.2856 72.7651 58.1119 62.3336C58.5012 61.5152 58.8437 60.679 59.15 59.8246C59.2077 59.6625 59.2654 59.4967 59.3232 59.331V59.3273C59.406 59.0874 59.4836 58.8499 59.5585 58.6084C59.5713 58.5669 59.5844 58.5256 59.597 58.4839C59.606 58.4556 59.6146 58.4271 59.6234 58.3987C59.6572 58.2898 59.6899 58.1802 59.7218 58.0704C59.7513 57.9683 59.7804 57.866 59.8094 57.7636C59.8311 57.6846 59.8529 57.6075 59.8708 57.5323C59.8942 57.4519 59.9162 57.3716 59.9377 57.2911C59.949 57.2485 59.9602 57.2057 59.9711 57.163C59.9732 57.1548 59.9754 57.1466 59.9775 57.1384C60.0076 57.0203 60.0366 56.9018 60.0655 56.7825L60.0764 56.7392C60.0919 56.6758 60.107 56.6123 60.122 56.5489C60.1735 56.3311 60.2228 56.1128 60.2672 55.8923C60.3025 55.7258 60.3365 55.5588 60.3692 55.3912C60.7394 53.4951 60.9342 51.5339 60.9342 49.5301C60.9343 49.1264 60.9269 48.7119 60.9089 48.2901Z" fill="#009CAA"/>
<path d="M60.117 47.8693C60.093 47.8513 60.0691 47.8327 60.0455 47.8139C60.0411 47.8104 60.0367 47.807 60.0325 47.8035C60.0085 47.7844 59.9849 47.765 59.9616 47.7453C59.9605 47.7443 59.9593 47.7433 59.9582 47.7424C59.9353 47.7229 59.9124 47.7032 59.8899 47.6832C59.887 47.6805 59.8839 47.6779 59.8809 47.6752C59.8582 47.655 59.8357 47.6343 59.8132 47.6135C59.8093 47.6099 59.8054 47.6062 59.8017 47.6026C59.7817 47.5838 59.7618 47.5648 59.7421 47.5455C59.7387 47.5423 59.7355 47.5392 59.7322 47.536C59.712 47.5161 59.6917 47.4959 59.6718 47.4755C59.6643 47.4678 59.6568 47.4601 59.6493 47.4524C59.6354 47.4379 59.6213 47.4234 59.6076 47.4086C59.5947 47.395 59.5819 47.3814 59.5692 47.3676C59.5583 47.3558 59.5474 47.344 59.5366 47.3321C59.5257 47.3202 59.515 47.3083 59.5044 47.2963C59.4976 47.2888 59.4911 47.2811 59.4844 47.2735C59.4612 47.2474 59.4384 47.221 59.4158 47.1943C59.4138 47.1922 59.4121 47.1901 59.4103 47.188C59.0765 46.7942 58.7792 46.3397 58.5062 45.8771C58.4919 45.8529 58.4777 45.8288 58.4636 45.8045C58.462 45.8017 58.4603 45.7989 58.4587 45.796C58.3302 45.576 58.207 45.355 58.0877 45.1387C57.1035 50.5666 55.1027 55.7674 51.9674 60.3194C51.6034 60.8494 51.2211 61.372 50.8213 61.8803C50.8415 61.8717 50.8618 61.8631 50.882 61.8546C51.7777 61.4752 52.6475 61.0619 53.481 60.6115C55.5719 59.4796 57.5037 58.1423 59.3497 56.6464C59.6559 56.3977 59.9657 56.1454 60.2684 55.8931C60.3038 55.7266 60.3377 55.5596 60.3705 55.392C60.7406 53.4959 60.9355 51.5347 60.9355 49.5309C60.9355 49.1273 60.9281 48.7128 60.9101 48.291C60.6615 48.219 60.3947 48.0784 60.117 47.8693Z" fill="#028D99"/>
<path d="M58.7168 39.849C59.1336 40.795 59.5171 41.7554 59.8518 42.7364C59.9275 42.9669 59.931 43.176 59.8881 43.3671C60.1222 43.7239 60.3527 44.0771 60.5801 44.4341C60.4463 43.3815 60.2735 42.2965 60.0683 41.1828C59.823 39.8671 59.5277 38.5154 59.1848 37.1384C59.0588 36.6266 58.9254 36.1112 58.7884 35.5957C58.8282 37.0146 58.8067 38.4336 58.7168 39.849Z" fill="#028D99"/>
<path d="M46.9885 65.9967C39.7689 72.5571 29.6904 76.0283 20.2 73.9773C13.2898 72.4814 7.20928 68.0009 3.31615 62.1507C2.78288 61.3469 2.28549 60.5142 1.83141 59.6599C1.83104 59.6591 1.83053 59.6582 1.82999 59.6574C1.78283 59.6199 1.73547 59.5826 1.68848 59.5449C1.7675 59.7779 1.84987 60.0109 1.93559 60.2404V60.2439C6.27227 71.7857 17.4135 80.0005 30.469 80.0005C42.7208 80.0005 53.2859 72.7662 58.1122 62.3346C58.5015 61.5162 58.844 60.68 59.1502 59.8257C59.208 59.6636 59.2657 59.4978 59.3234 59.332C57.4201 60.799 55.4162 62.0858 53.2823 63.2284C51.2456 64.3242 49.1407 65.2434 46.9885 65.9967Z" fill="#028D99"/>
<path d="M30.8119 47.4447C30.6644 47.4771 30.5236 47.4806 30.394 47.4589C30.0227 48.58 29.9794 50.869 30.0082 51.3303C30.0625 52.2493 30.8735 56.7839 32.5817 55.7855C33.8074 55.0683 34.0162 52.2782 33.8757 51.0779C33.7064 49.5965 32.7619 47.012 30.8119 47.4447Z" fill="#21B4B5"/>
<path d="M44.3027 47.678C44.1225 47.7609 43.9275 47.8366 43.7258 47.8944C39.2381 49.1955 37.1584 43.2804 35.6843 40.2599C34.9704 38.7964 34.2425 37.3438 33.5469 35.8731C33.2512 35.2424 32.97 34.6006 32.6746 33.9698C32.5159 33.6131 32.3501 33.2598 32.1734 32.9138C32.1554 32.9786 32.141 33.0435 32.1266 33.1085C31.5032 33.1516 30.4394 34.6115 30.0325 35.08C29.2753 35.9488 28.6336 36.9076 28.0535 37.8989C26.8602 39.9318 26.0457 42.1054 25.1375 44.2717C24.467 45.8721 23.537 47.5446 21.7886 48.143C17.0598 49.7651 14.8861 43.6301 13.7903 40.2887C13.394 39.0704 13.03 37.8412 12.6118 36.6301C12.2296 35.5055 11.88 33.9735 11.1228 33.0398C10.045 31.7097 9.24137 33.1732 8.4807 34.1682C7.91134 34.9177 7.36729 35.6924 6.84864 36.4778C6.80992 37.0393 6.79004 37.5812 6.79004 38.0996C6.79004 39.3855 6.91079 40.643 7.14696 41.8627V41.8652C7.25485 42.4402 7.38876 43.0059 7.54665 43.5617C7.54682 43.5617 7.54699 43.5617 7.54715 43.5617L7.62668 43.558C7.91113 43.3454 8.29692 43.2769 8.68621 43.5075C10.8021 44.7691 10.7482 47.6637 10.6219 49.8625C10.6219 49.8634 10.6217 49.8642 10.6217 49.8651C14.2553 54.8446 20.1353 58.0804 26.7704 58.0804C28.0577 58.0804 29.3163 57.9585 30.5358 57.7259C30.5351 57.7252 30.5342 57.7246 30.5333 57.7241C28.875 56.5093 27.9848 53.5102 27.7937 51.8881C27.5522 49.8625 27.7433 44.4881 30.836 44.9314C30.9226 44.9459 30.9983 44.971 31.0666 45.0071C33.5862 44.6215 35.5254 47.6672 35.9799 49.9743C36.322 51.7152 36.1418 54.433 35.0534 56.2858C35.053 56.2866 35.0525 56.2873 35.052 56.2881C38.9904 54.4913 42.2425 51.4525 44.3072 47.6722C44.3058 47.6729 44.3042 47.6737 44.3026 47.6744V47.678H44.3027Z" fill="#21B4B5"/>
<path d="M13.1639 30.2065C14.6853 31.7854 15.4023 34.3193 16.0982 36.3307C16.8621 38.5439 17.4425 40.93 18.5563 42.9991C19.072 43.9578 20.0413 45.5547 21.1516 44.43C21.7067 43.8676 21.9591 42.8873 22.24 42.1736C22.9897 40.2885 23.7793 38.4068 24.774 36.6334C26.1979 34.1029 30.498 27.4273 34.1531 29.6585C36.0311 30.8012 36.9322 33.9083 37.8369 35.7791C38.9182 38.0103 39.9384 40.2847 41.0736 42.4908C41.3263 42.9774 41.993 44.5527 42.7607 44.3939C43.4165 44.2607 43.6833 42.9197 43.8167 42.4044C44.3683 40.2847 44.653 38.1292 45.3197 36.0314C45.5325 35.3614 45.8639 34.3635 46.3067 33.3152C46.2684 33.0868 46.2277 32.8567 46.1846 32.6249C46.0241 31.7621 45.8302 30.8758 45.6056 29.9729C45.1349 28.0805 44.5277 26.1219 43.801 24.175C43.8003 24.1753 43.7994 24.1757 43.7987 24.176C39.7436 25.7656 35.4182 26.6055 31.0533 26.5946C26.2446 26.5839 21.393 25.6935 16.9669 23.7939C15.0309 22.9612 12.9583 21.8619 11.3222 20.3805C11.3216 20.38 11.3209 20.3794 11.3204 20.3789C9.8492 23.5635 8.68353 26.9261 7.90332 30.0959C7.90382 30.0955 7.90436 30.0951 7.90491 30.0946C9.49111 28.7935 11.3258 28.2961 13.1639 30.2065Z" fill="#21B4B5"/>
<path d="M19.3162 21.999C22.9784 23.3544 26.8533 24.0536 30.7605 24.032C34.7509 24.0068 38.7446 23.329 42.5005 21.9773C42.623 21.9342 42.7455 21.8909 42.868 21.8441C42.8685 21.8439 42.8689 21.8437 42.8694 21.8436C41.4322 18.4696 39.6484 15.2282 37.6084 12.5403C37.3698 12.2283 37.1286 11.921 36.8829 11.6255C33.9163 8.01845 30.4606 5.61914 26.7706 5.61914C23.6814 5.61914 20.7573 7.2998 18.1479 9.9613C17.8667 10.245 17.5925 10.5405 17.3207 10.8478C15.5311 12.8632 13.9052 15.3287 12.4951 17.9999C12.4955 18.0004 12.496 18.001 12.4965 18.0015V18.005C14.3346 19.8688 16.8434 21.0871 19.3162 21.999Z" fill="#21B4B5"/>
<path d="M2.89739 44.0022C3.91365 41.4502 5.20762 39.0027 6.7036 36.6995C6.75042 36.6273 6.79725 36.5552 6.84791 36.4832V36.4795C6.84808 36.4792 6.84825 36.4789 6.84846 36.4787C7.36711 35.6933 7.91116 34.9186 8.48052 34.1691C9.24118 33.1741 10.0448 31.7107 11.1227 33.0407C11.8798 33.9744 12.2294 35.5064 12.6117 36.631C13.0298 37.8421 13.3938 39.0713 13.7901 40.2896C14.8859 43.6311 17.0596 49.766 21.7884 48.1439C23.5368 47.5455 24.4668 45.873 25.1373 44.2726C26.0455 42.1063 26.86 39.9327 28.0534 37.8998C28.6334 36.9085 29.2752 35.9497 30.0323 35.0809C30.4392 34.6124 31.503 33.1525 32.1264 33.1094C32.1408 33.0444 32.1552 32.9794 32.1732 32.9147C32.3499 33.2607 32.5157 33.614 32.6744 33.9707C32.9698 34.6015 33.251 35.2433 33.5467 35.874C34.2423 37.3447 34.9702 38.7973 35.6841 40.2608C37.1582 43.2814 39.2379 49.1964 43.7256 47.8953C43.9273 47.8375 44.1223 47.7619 44.3025 47.6789V47.6752C44.3041 47.6745 44.3057 47.6737 44.3071 47.673C45.9586 46.8932 46.8078 45.0603 47.2186 43.3462C47.831 40.7762 48.1739 38.2205 49.0676 35.7117C49.3017 35.0593 50.2176 32.2296 50.7185 32.2911C51.2194 32.3486 52.5855 35.171 52.8921 35.6469C54.1389 37.5896 55.2386 39.6155 56.3629 41.6268C56.7381 42.5532 57.1454 43.4652 57.6498 44.3519C57.7904 44.599 57.9349 44.8654 58.0859 45.1393C58.2052 45.3556 58.3285 45.5766 58.4569 45.7967C58.4585 45.7995 58.4602 45.8023 58.4618 45.8051C58.4759 45.8294 58.4902 45.8535 58.5044 45.8777C58.7774 46.3403 59.0747 46.7948 59.4085 47.1886C59.4103 47.1907 59.4121 47.1928 59.414 47.1949C59.4367 47.2216 59.4594 47.248 59.4826 47.2741C59.4893 47.2818 59.4958 47.2894 59.5026 47.2969C59.5132 47.3089 59.5239 47.3208 59.5349 47.3327C59.5456 47.3447 59.5565 47.3564 59.5674 47.3683C59.5801 47.382 59.593 47.3957 59.6058 47.4092C59.6195 47.4239 59.6336 47.4386 59.6475 47.453C59.6551 47.4607 59.6625 47.4685 59.6701 47.4761C59.6899 47.4965 59.7102 47.5167 59.7304 47.5366C59.7338 47.5398 59.7369 47.5429 59.7403 47.5461C59.76 47.5654 59.7799 47.5844 59.8 47.6032C59.8036 47.6068 59.8075 47.6105 59.8114 47.6141C59.8339 47.635 59.8564 47.6556 59.8792 47.6758C59.8822 47.6784 59.8851 47.6811 59.8881 47.6838C59.9107 47.7038 59.9335 47.7236 59.9564 47.743C59.9575 47.7439 59.9587 47.7449 59.9598 47.7459C59.9832 47.7657 60.0068 47.785 60.0307 47.8041C60.0349 47.8076 60.0393 47.811 60.0437 47.8145C60.0673 47.8333 60.0913 47.8519 60.1152 47.87C60.3929 48.0791 60.6597 48.2197 60.9082 48.2917C60.9024 48.1314 60.8957 47.9691 60.8875 47.8053C60.8801 47.6597 60.8716 47.513 60.8614 47.3654C60.847 47.1094 60.829 46.8536 60.8072 46.5939L60.8002 46.5182C60.7896 46.3741 60.7748 46.2263 60.7607 46.0821C60.746 45.9091 60.7319 45.7361 60.7101 45.5596C60.6742 45.2098 60.6344 44.8566 60.5876 44.4997L60.5806 44.4384V44.4349C60.3532 44.0779 60.1226 43.7247 59.8885 43.368C59.9315 43.1768 59.9279 42.9677 59.8523 42.7372C59.5175 41.7562 59.134 40.7958 58.7172 39.8498C58.1021 38.453 57.4146 37.0875 56.7057 35.7335C55.6384 33.6933 54.5356 30.9791 52.7872 29.422C49.7959 26.7617 47.586 30.2617 46.3065 33.3111V33.3148C46.3063 33.3154 46.3059 33.3159 46.3058 33.3164C45.8629 34.3648 45.5315 35.3626 45.3188 36.0327C44.6521 38.1304 44.3673 40.286 43.8157 42.4056C43.6823 42.9209 43.4155 44.2619 42.7597 44.3951C41.992 44.5539 41.3253 42.9787 41.0726 42.492C39.9374 40.286 38.9172 38.0115 37.8359 35.7803C36.9313 33.9096 36.0301 30.8024 34.1522 29.6598C30.497 27.4285 26.1969 34.1042 24.7731 36.6346C23.7783 38.408 22.9888 40.2897 22.239 42.1749C21.9581 42.8885 21.7057 43.8689 21.1506 44.4312C20.0404 45.5559 19.071 43.959 18.5553 43.0003C17.4415 40.9312 16.8611 38.5451 16.0972 36.3319C15.4013 34.3206 14.6843 31.7866 13.1629 30.2077C11.3248 28.2974 9.49013 28.7948 7.90402 30.0959C7.90347 30.0964 7.90293 30.0968 7.90243 30.0972C6.40712 31.3193 5.13198 33.2541 4.27767 34.5657C3.00203 36.5266 1.89881 38.5848 0.94734 40.7186C0.897008 40.9746 0.849849 41.2304 0.803025 41.4829C0.305634 44.2366 0.0317924 46.8247 0.00292969 49.1316C0.197576 49.0669 0.395772 48.9696 0.590419 48.8361C1.99626 47.8664 2.30247 45.4909 2.89739 44.0022Z" fill="#8BD0DF"/>
<path d="M49.7843 45.3932C49.4781 47.7001 49.6727 51.6074 51.3634 53.4601C52.6718 54.8911 54.4776 53.9792 55.2024 52.44C56.1429 50.4431 55.7606 47.8009 54.9208 45.8401C54.2037 44.1675 52.7475 41.94 50.6679 42.8843C50.2099 43.0933 49.9973 43.7458 50.1307 44.2036C50.1487 44.2649 50.1701 44.3298 50.1884 44.3945C50.2173 44.4884 50.2602 44.5748 50.3144 44.6541C50.0511 44.7731 49.835 45.0183 49.7843 45.3932ZM53.1438 46.8782C53.7493 48.0065 54.0738 49.5997 53.7208 50.8648C53.4828 51.7264 53.0502 52.5625 52.5454 51.1964C52.3328 50.6161 52.1526 50.0213 52.0086 49.4194C51.695 48.1036 51.5866 46.7375 51.4894 45.3932C51.4824 45.2705 51.4535 45.166 51.4137 45.0686C52.0156 44.9317 52.8411 46.3195 53.1438 46.8782Z" fill="#8BD0DF"/>
<path d="M11.3187 20.3799C11.3192 20.3804 11.3199 20.3809 11.3204 20.3815C12.9565 21.8629 15.0291 22.9622 16.9652 23.7949C21.3912 25.6945 26.2429 26.5848 31.0516 26.5956C35.4164 26.6065 39.7419 25.7666 43.797 24.1769C43.7977 24.1766 43.7986 24.1763 43.7993 24.176C44.1481 24.0394 44.4933 23.899 44.8389 23.7517C47.4085 22.6522 50.4833 21.1491 52.1919 18.8062C51.7663 17.9989 51.3271 17.2058 50.8726 16.4272C49.3951 19.2312 45.7263 20.799 42.8684 21.8444C42.8679 21.8446 42.8675 21.8447 42.867 21.8449C42.7445 21.8917 42.622 21.935 42.4995 21.9782C38.7436 23.3299 34.7498 24.0077 30.7595 24.0328C26.8522 24.0545 22.9774 23.3552 19.3151 21.9998C16.8423 21.0879 14.3336 19.8696 12.4954 18.0059V18.0024C12.4949 18.0019 12.4944 18.0014 12.494 18.0009C11.7553 17.2551 11.1251 16.3976 10.6534 15.418C10.1739 16.2073 9.70541 17.0183 9.25488 17.8438C9.78465 18.7948 10.4974 19.6377 11.3187 20.3799Z" fill="#8BD0DF"/>
<path d="M8.68582 43.5091C8.29653 43.2786 7.9107 43.347 7.62629 43.5596L7.54677 43.5633C7.5466 43.5633 7.54643 43.5633 7.54626 43.5633C7.406 43.5707 7.26574 43.6138 7.13596 43.7038C5.07781 45.0988 4.29567 48.1303 4.38928 50.5021C4.46146 52.2646 5.05245 56.1539 7.43516 56.19C10.0087 56.2296 10.499 51.9223 10.6071 50.0911C10.6106 50.0163 10.6178 49.9415 10.6213 49.8667C10.6213 49.8658 10.6215 49.8649 10.6215 49.8641C10.7479 47.6653 10.8017 44.7707 8.68582 43.5091ZM8.35421 49.1683C8.30743 50.0804 8.27118 51.0102 8.07331 51.9079C7.97194 52.4017 7.82057 52.881 7.61886 53.3425C7.33758 54.0634 7.24047 54.0561 7.33057 53.3171C6.08341 50.8337 7.19365 48.4331 8.12715 46.1297C8.48412 47.0633 8.40492 48.1086 8.35421 49.1683Z" fill="#8BD0DF"/>
<path d="M31.0666 45.0078C30.9983 44.9717 30.9227 44.9466 30.8361 44.9321C27.7434 44.4888 27.5522 49.8632 27.7937 51.8888C27.9848 53.5109 28.8751 56.51 30.5334 57.7248C30.5342 57.7254 30.5351 57.7259 30.5358 57.7266C31.2275 58.237 32.0519 58.4308 33.0168 58.0852C33.8991 57.7681 34.5658 57.1166 35.0521 56.2887C35.0526 56.288 35.0531 56.2872 35.0535 56.2865C36.1419 54.4337 36.3221 51.7158 35.9799 49.975C35.5255 47.6679 33.5863 44.6222 31.0666 45.0078ZM30.0071 51.3302C29.9782 50.8689 30.0216 48.58 30.3929 47.4588C30.5224 47.4805 30.6632 47.477 30.8107 47.4446C32.7608 47.012 33.7053 49.5964 33.8746 51.0778C34.015 52.2782 33.8063 55.0682 32.5806 55.7854C30.8723 56.7839 30.0613 52.2493 30.0071 51.3302Z" fill="#8BD0DF"/>
<path d="M53.4798 60.6118C52.6483 61.063 51.7785 61.4762 50.8808 61.8549C50.8606 61.8634 50.8403 61.872 50.8201 61.8806C50.8201 61.8807 50.8201 61.8807 50.8199 61.8807C47.2305 63.3931 43.232 64.3625 39.5053 64.9912C29.7227 66.6494 19.0641 65.6257 10.0454 61.3687C6.49507 59.6889 2.98067 57.4687 0.40332 54.4805C0.446969 54.7436 0.493417 55.0067 0.544126 55.2698V55.2733C0.782087 56.5566 1.11014 57.811 1.51005 59.0329L1.51355 59.0437C1.56777 59.2095 1.6255 59.3752 1.68322 59.5412C1.68481 59.5425 1.6864 59.5438 1.68815 59.5451C1.73514 59.5828 1.78251 59.6201 1.82967 59.6575C3.08559 60.6518 4.42848 61.5397 5.78512 62.3204C10.489 65.0345 15.7225 66.7863 21.0505 67.7524C29.7578 69.3309 38.7307 68.8879 46.9901 65.9951C46.9894 65.9958 46.9889 65.9963 46.9882 65.9969C49.1403 65.2436 51.2453 64.3244 53.282 63.2286C55.4159 62.086 57.4198 60.7992 59.3231 59.3322V59.3285C59.406 59.0886 59.4836 58.8511 59.5584 58.6096C59.5713 58.5681 59.5843 58.5268 59.597 58.4851C59.6059 58.4568 59.6145 58.4283 59.6234 58.4C59.6571 58.291 59.6899 58.1815 59.7217 58.0716C59.7513 57.9695 59.7803 57.8672 59.8093 57.7648C59.8093 57.7646 59.8095 57.7644 59.8095 57.7642C59.8097 57.7638 59.8097 57.7634 59.8098 57.763C59.8315 57.684 59.8528 57.6087 59.8707 57.5335C59.8941 57.4532 59.9162 57.3728 59.9376 57.2923C59.9489 57.2497 59.9601 57.207 59.9711 57.1642C59.9732 57.156 59.9753 57.1479 59.9774 57.1396C60.0075 57.0215 60.0366 56.903 60.0654 56.7837L60.0763 56.7404C60.0918 56.677 60.107 56.6135 60.1219 56.5501C60.1735 56.3323 60.2227 56.114 60.2671 55.8935C59.9644 56.1457 59.6546 56.3981 59.3484 56.6468C57.5025 58.1427 55.5707 59.4799 53.4798 60.6118Z" fill="#8BD0DF"/>
<path d="M11.1243 33.041C11.8814 33.9746 12.231 35.5066 12.6133 36.6313C13.0315 37.8423 13.3954 39.0715 13.7918 40.2899C14.8875 43.6313 17.0612 49.7662 21.79 48.1442C23.5384 47.5458 24.4684 45.8732 25.139 44.2728C26.0471 42.1066 26.8617 39.9329 28.055 37.9001C28.6351 36.9088 29.2768 35.95 30.0339 35.0812C30.4408 34.6126 31.5046 33.1527 32.128 33.1096C32.1425 33.0446 32.1569 32.9797 32.1748 32.9149C32.3515 33.261 32.5173 33.6142 32.6761 33.971C32.9714 34.6018 33.2526 35.2435 33.5483 35.8743C34.2439 37.3449 34.9718 38.7975 35.6857 40.261C37.1599 43.2816 39.2395 49.1967 43.7272 47.8955C43.9289 47.8377 44.1239 47.7621 44.3042 47.6792V47.6755C44.5168 47.2898 44.7149 46.897 44.9025 46.4968C45.1546 45.9598 45.3781 45.4119 45.5798 44.8532C46.3405 42.7445 46.7513 40.47 46.7513 38.1017C46.7513 36.6599 46.5964 35.0379 46.3081 33.315C46.3079 33.3155 46.3076 33.3161 46.3074 33.3166C45.8645 34.3649 45.5331 35.3628 45.3204 36.0328C44.6537 38.1306 44.3689 40.2861 43.8173 42.4058C43.6839 42.9211 43.4171 44.2621 42.7613 44.3953C41.9936 44.554 41.3269 42.9788 41.0742 42.4922C39.939 40.2861 38.9189 38.0117 37.8375 35.7804C36.9329 33.9097 36.0317 30.8025 34.1538 29.6599C30.4986 27.4287 26.1985 34.1043 24.7747 36.6348C23.7799 38.4082 22.9904 40.2899 22.2406 42.175C21.9597 42.8887 21.7073 43.869 21.1522 44.4314C20.042 45.5561 19.0726 43.9592 18.5569 43.0005C17.4432 40.9314 16.8627 38.5453 16.0988 36.3321C15.4029 34.3207 14.6859 31.7868 13.1645 30.2079C11.3264 28.2975 9.49174 28.7949 7.90563 30.0961C7.87326 30.2295 7.84084 30.3592 7.80847 30.4926C7.62084 31.2857 7.45857 32.0641 7.32165 32.8212C7.08757 34.1044 6.9288 35.3336 6.84961 36.4798C6.84978 36.4795 6.84994 36.4792 6.85015 36.479C7.3688 35.6936 7.91285 34.9189 8.48221 34.1694C9.2428 33.1744 10.0464 31.7109 11.1243 33.041Z" fill="#ABDCF0"/>
<path d="M8.06414 45.1277C8.70234 46.8289 9.56755 48.4186 10.6236 49.8641C10.7499 47.6653 10.8038 44.7707 8.68788 43.5091C8.29859 43.2786 7.91277 43.347 7.62836 43.5596L7.54883 43.5633C7.69665 44.0931 7.86987 44.6121 8.06418 45.1241V45.1277H8.06414Z" fill="#ABDCF0"/>
<path d="M35.9809 49.975C35.5264 47.6679 33.5873 44.6222 31.0676 45.0078C30.9993 44.9717 30.9236 44.9466 30.837 44.9321C27.7443 44.4888 27.5532 49.8632 27.7947 51.8888C27.9858 53.5109 28.876 56.51 30.5343 57.7248C32.1166 57.4256 33.6306 56.9389 35.0544 56.2865C36.1428 54.4337 36.323 51.7159 35.9809 49.975ZM32.5816 55.7854C30.8733 56.7839 30.0623 52.2494 30.0081 51.3302C29.9792 50.8689 30.0225 48.58 30.3939 47.4589C30.5234 47.4805 30.6642 47.477 30.8117 47.4446C32.7618 47.012 33.7062 49.5965 33.8755 51.0779C34.016 52.2782 33.8073 55.0682 32.5816 55.7854Z" fill="#ABDCF0"/>
<path d="M31.0534 26.5956C35.4183 26.6065 39.7437 25.7666 43.7988 24.1769C43.5105 23.3948 43.1969 22.6161 42.8688 21.8449C42.7463 21.8917 42.6238 21.935 42.5013 21.9781C38.7454 23.3298 34.7516 24.0076 30.7613 24.0328C26.8541 24.0544 22.9792 23.3552 19.317 21.9997C16.8442 21.0879 14.3354 19.8696 12.4972 18.0059C12.0826 18.7845 11.6933 19.5739 11.3223 20.3814C12.9584 21.8628 15.031 22.9621 16.967 23.7948C21.3931 25.6944 26.2447 26.5848 31.0534 26.5956Z" fill="#ABDCF0"/>
<path d="M59.8529 42.7372C59.5174 41.7566 59.1355 40.7979 58.7177 39.8535C58.6093 41.6305 58.4002 43.3931 58.0869 45.1377C58.2059 45.3547 58.3291 45.5763 58.4576 45.7967C58.4592 45.7996 58.4609 45.8024 58.4625 45.8052C58.4766 45.8294 58.4908 45.8536 58.5051 45.8778C58.7781 46.3404 59.0753 46.7949 59.4092 47.1887C59.411 47.1908 59.4127 47.1929 59.4146 47.195C59.4374 47.2217 59.46 47.2481 59.4833 47.2742C59.49 47.2818 59.4965 47.2894 59.5033 47.297C59.5139 47.309 59.5246 47.3209 59.5355 47.3328C59.5463 47.3447 59.5572 47.3565 59.5681 47.3683C59.5808 47.3821 59.5936 47.3957 59.6064 47.4093C59.6202 47.424 59.6343 47.4386 59.6482 47.4531C59.6557 47.4608 59.6631 47.4685 59.6707 47.4762C59.6906 47.4966 59.7108 47.5168 59.7311 47.5367C59.7344 47.5398 59.7376 47.543 59.7409 47.5461C59.7607 47.5654 59.7805 47.5845 59.8006 47.6033C59.8043 47.6069 59.8082 47.6105 59.8121 47.6141C59.8346 47.635 59.8571 47.6556 59.8798 47.6759C59.8828 47.6785 59.8858 47.6812 59.8888 47.6838C59.9113 47.7039 59.9342 47.7236 59.9571 47.743C59.9582 47.744 59.9594 47.745 59.9604 47.746C59.9838 47.7657 60.0074 47.7851 60.0314 47.8041C60.0356 47.8077 60.04 47.8111 60.0444 47.8145C60.068 47.8334 60.0919 47.8519 60.1159 47.87C60.3936 48.0791 60.6604 48.2197 60.9089 48.2917C60.9031 48.1315 60.8964 47.9691 60.8881 47.8054C60.8808 47.6597 60.8723 47.5131 60.8621 47.3654C60.8476 47.1095 60.8297 46.8536 60.8079 46.594L60.8008 46.5183C60.7903 46.3742 60.7755 46.2263 60.7614 46.0822C60.7466 45.9092 60.7326 45.7362 60.7108 45.5596C60.6748 45.2099 60.6351 44.8567 60.5882 44.4997L60.5812 44.4385V44.435C60.3538 44.078 60.1233 43.7248 59.8892 43.368C59.9321 43.1768 59.9285 42.9677 59.8529 42.7372Z" fill="#6EC2D4"/>
<path d="M53.4809 60.6128C52.6493 61.0641 51.7795 61.4772 50.8819 61.8559C50.8617 61.8644 50.8414 61.8731 50.8212 61.8816C50.8212 61.8817 50.8212 61.8817 50.821 61.8818C49.6682 63.3552 48.3818 64.7351 46.9912 65.9961C46.9905 65.9968 46.9899 65.9974 46.9893 65.9979C49.1414 65.2447 51.2464 64.3254 53.2831 63.2296C55.4169 62.087 57.4209 60.8002 59.3242 59.3332V59.3295C59.4071 59.0896 59.4847 58.8521 59.5595 58.6106C59.5723 58.5691 59.5854 58.5278 59.598 58.4861C59.607 58.4578 59.6156 58.4293 59.6244 58.401C59.6582 58.292 59.691 58.1825 59.7228 58.0726C59.7524 57.9705 59.7814 57.8682 59.8104 57.7659C59.8104 57.7657 59.8106 57.7655 59.8106 57.7652C59.8108 57.7649 59.8108 57.7644 59.8109 57.764C59.8326 57.685 59.8539 57.6098 59.8718 57.5345C59.8952 57.4542 59.9172 57.3738 59.9387 57.2934C59.95 57.2507 59.9612 57.208 59.9722 57.1653C59.9742 57.1571 59.9764 57.1489 59.9785 57.1407C60.0086 57.0226 60.0376 56.9041 60.0665 56.7847L60.0774 56.7415C60.0929 56.678 60.108 56.6146 60.123 56.5511C60.1745 56.3333 60.2238 56.115 60.2682 55.8945C59.9655 56.1467 59.6557 56.3992 59.3495 56.6479C57.5036 58.1437 55.5718 59.4809 53.4809 60.6128Z" fill="#6EC2D4"/>
</svg>
