<svg width="146" height="164" viewBox="0 0 146 164" fill="none" xmlns="http://www.w3.org/2000/svg">
<path opacity="0.2" d="M6.21097 149.073C-1.25461 154.389 -1.72791 155.603 3.38764 155.603C8.92698 155.603 11.976 153.123 18.5362 148.451C27.452 142.098 29.1251 139.895 37.2786 139.629C26.9567 146.982 16.5247 154.414 13.7701 156.376C7.87858 160.572 2.49334 164 10.2589 164C18.0244 164 22.2594 160.572 28.151 156.376C30.9055 154.414 41.3375 146.982 51.6594 139.629C59.07 139.895 54.5542 142.098 45.6385 148.451C39.0782 153.123 35.1625 155.603 40.7045 155.603C45.8201 155.603 48.7453 154.392 56.2108 149.073C69.4799 139.621 69.3285 137.149 55.3963 136.965C65.7402 129.596 75 123 75 123H67.8096H60C60 123 51.3594 129.596 41.0155 136.965C26.5714 137.149 19.4801 139.621 6.21097 149.073Z" fill="#5A5A5A"/>
<path d="M93 44.7772C93 28.8229 91.7481 25.1887 86.533 25.1887C80.8829 25.1887 81.3236 32.6298 81.3236 46.6514C81.3236 65.7079 82.7719 72.3163 74.8342 73.1155C74.8342 51.0541 74.8342 28.7617 74.8342 22.8718C74.8342 10.2816 75.4208 0 67.5 0C59.5791 0 60.1658 10.2816 60.1658 22.8718C60.1658 28.7617 60.1658 51.0569 60.1658 73.1155C52.2281 72.319 53.6764 65.7079 53.6764 46.6514C53.6764 32.6298 54.1171 25.1887 48.467 25.1887C43.2491 25.1887 42 28.8229 42 44.7772C42 73.1378 45.528 80.551 60 81.1024C60 103.211 60 123 60 123L67.5 123L75 123C75 123 75 103.109 75 81C89.472 80.4486 93 73.135 93 44.7772Z" fill="#B2FFF6"/>
<path opacity="0.2" d="M93.8094 138.898C89.2305 142.14 88.9402 142.88 92.0778 142.88C95.4752 142.88 97.3453 141.368 101.369 138.519C106.837 134.645 107.863 133.302 112.864 133.14C106.533 137.623 100.135 142.155 98.4457 143.351C94.8322 145.91 91.5292 148 96.2921 148C101.055 148 103.652 145.91 107.266 143.351C108.955 142.155 115.354 137.623 121.684 133.14C126.23 133.302 123.46 134.645 117.992 138.519C113.968 141.368 111.566 142.88 114.965 142.88C118.103 142.88 119.897 142.141 124.476 138.898C132.614 133.135 132.521 131.627 123.976 131.515C130.321 127.022 136 123 136 123H131.59H127C127 123 121.5 127.022 115.156 131.515C106.297 131.627 101.948 133.135 93.8094 138.898Z" fill="#5A5A5A"/>
<path d="M146 79.7549C146 70.9346 145.288 68.9255 142.323 68.9255C139.11 68.9255 139.36 73.0392 139.36 80.791C139.36 91.3263 140.184 94.9797 135.67 95.4216C135.67 83.2251 135.67 70.9008 135.67 67.6446C135.67 60.6841 136.004 55 131.5 55C126.996 55 127.33 60.6841 127.33 67.6446C127.33 70.9008 127.33 83.2266 127.33 95.4216C122.816 94.9813 123.64 91.3263 123.64 80.791C123.64 73.0392 123.89 68.9255 120.677 68.9255C117.71 68.9255 117 70.9346 117 79.7549C117 95.4339 118.771 99.5323 127 99.8371C127 112.06 127 123 127 123H131.5H136C136 123 136 112.003 136 99.7805C144.229 99.4757 146 95.4324 146 79.7549Z" fill="#B2FFF6"/>
</svg>
