<svg width="651" height="149" viewBox="0 0 651 149" fill="none" xmlns="http://www.w3.org/2000/svg">
<path d="M61.32 149H7.72L0.36 135.72V104.68H13.96V44.04L7.08 31.56V0.359997H41.16L47.56 14.6V104.68H54.76L61.32 118.76V149ZM47.88 128.84V111.4H34.28V7.23999H13.96V24.68H20.84V111.4H7.24V128.84H47.88ZM142.416 149H88.9763L68.0163 118.28V61.16H74.7363V52.52H81.6163V43.88H135.856L156.016 75.4V105.64H149.136V140.36H142.416V149ZM128.976 128.84V120.2H135.696V111.4H95.2163V102.76H88.4963V93.96H135.696V85.32H142.576V68.04H135.696V59.4H128.976V50.76H88.4963V59.4H81.6163V68.04H74.8963V111.4H81.6163V120.2H88.4963V128.84H128.976ZM128.976 76.68H95.2163V68.04H128.976V76.68ZM250.86 149H176.94L162.86 127.08V87.08H169.58V52.52H176.46V43.88H237.42L250.86 66.6V149ZM237.42 128.84V59.4H230.54V50.76H183.34V59.4H176.46V68.04H223.82V76.68H183.34V85.32H176.46V93.96H169.74V120.2H176.46V128.84H237.42ZM223.82 111.4H183.34V93.96H223.82V111.4ZM291.464 149H265.064L257.704 135.72V43.88H325.544L338.824 66.6V96.84H312.424L307.944 88.2H298.184V96.84H291.464V149ZM278.184 128.84V76.68H284.904V68.04H311.944V76.68H325.384V59.4H318.664V50.76H284.904V59.4H278.184V50.76H264.584V128.84H278.184ZM420.074 149H393.674L386.314 135.72V95.88L382.474 88.2H372.714V149H346.314L338.954 135.72V43.88H400.074L420.074 75.4V149ZM406.634 128.84V68.04H399.914V59.4H393.194V50.76H345.834V128.84H359.434V68.04H386.474V76.68H393.194V128.84H406.634ZM555.548 149H481.628L467.548 127.08V87.08H474.268V52.52H481.148V43.88H542.108L555.548 66.6V149ZM542.108 128.84V59.4H535.228V50.76H488.028V59.4H481.148V68.04H528.508V76.68H488.028V85.32H481.148V93.96H474.428V120.2H481.148V128.84H542.108ZM528.508 111.4H488.028V93.96H528.508V111.4ZM636.791 149H583.351L562.391 118.28V61.16H569.111V52.52H575.991V43.88H630.231L650.391 75.4V131.72H643.511V140.36H636.791V149ZM623.351 128.84V120.2H630.071V111.4H636.951V68.04H630.071V59.4H623.351V50.76H582.871V59.4H575.991V68.04H569.271V111.4H575.991V120.2H582.871V128.84H623.351ZM616.631 111.4H589.591V102.76H582.871V76.68H589.591V68.04H616.631V76.68H623.351V102.76H616.631V111.4Z" fill="#008A79"/>
</svg>
