<svg width="494" height="77" viewBox="0 0 494 77" fill="none" xmlns="http://www.w3.org/2000/svg">
<g filter="url(#filter0_d_899_472)">
<rect width="494" height="75" rx="6" fill="#B2FFF6"/>
<rect x="1" y="1" width="492" height="73" rx="5" stroke="#003C35" stroke-width="2"/>
<path d="M178.021 33L176.275 20.4H178.417L179.785 31.506H180.091L181.855 20.4H185.617L187.381 31.506H187.687L189.037 20.4H191.197L189.433 33H185.671L183.889 21.678H183.583L181.783 33H178.021ZM196.989 33.252C196.101 33.252 195.315 33.066 194.631 32.694C193.959 32.31 193.431 31.776 193.047 31.092C192.675 30.396 192.489 29.586 192.489 28.662V28.446C192.489 27.51 192.675 26.7 193.047 26.016C193.419 25.332 193.941 24.804 194.613 24.432C195.285 24.048 196.059 23.856 196.935 23.856C197.799 23.856 198.555 24.048 199.203 24.432C199.851 24.804 200.355 25.332 200.715 26.016C201.075 26.7 201.255 27.498 201.255 28.41V29.148H194.577C194.601 29.844 194.847 30.402 195.315 30.822C195.783 31.242 196.359 31.452 197.043 31.452C197.715 31.452 198.213 31.308 198.537 31.02C198.861 30.72 199.107 30.384 199.275 30.012L200.985 30.894C200.817 31.218 200.571 31.566 200.247 31.938C199.935 32.298 199.515 32.61 198.987 32.874C198.459 33.126 197.793 33.252 196.989 33.252ZM194.595 27.582H199.149C199.101 26.994 198.873 26.526 198.465 26.178C198.069 25.83 197.553 25.656 196.917 25.656C196.257 25.656 195.729 25.83 195.333 26.178C194.937 26.526 194.691 26.994 194.595 27.582ZM202.996 25.602V24.45H203.662C204.178 24.45 204.436 24.192 204.436 23.676V23.1H204.148C203.704 23.1 203.332 22.968 203.032 22.704C202.732 22.428 202.582 22.08 202.582 21.66C202.582 21.216 202.732 20.856 203.032 20.58C203.332 20.292 203.704 20.148 204.148 20.148C204.604 20.148 204.976 20.292 205.264 20.58C205.552 20.868 205.696 21.246 205.696 21.714V23.694C205.696 24.966 205.066 25.602 203.806 25.602H202.996ZM208.021 33V24.108H210.055V25.134H210.361C210.493 24.762 210.715 24.492 211.027 24.324C211.339 24.156 211.711 24.072 212.143 24.072H213.223V25.908H212.107C211.507 25.908 211.021 26.07 210.649 26.394C210.277 26.706 210.091 27.192 210.091 27.852V33H208.021ZM218.804 33.252C217.916 33.252 217.13 33.066 216.446 32.694C215.774 32.31 215.246 31.776 214.862 31.092C214.49 30.396 214.304 29.586 214.304 28.662V28.446C214.304 27.51 214.49 26.7 214.862 26.016C215.234 25.332 215.756 24.804 216.428 24.432C217.1 24.048 217.874 23.856 218.75 23.856C219.614 23.856 220.37 24.048 221.018 24.432C221.666 24.804 222.17 25.332 222.53 26.016C222.89 26.7 223.07 27.498 223.07 28.41V29.148H216.392C216.416 29.844 216.662 30.402 217.13 30.822C217.598 31.242 218.174 31.452 218.858 31.452C219.53 31.452 220.028 31.308 220.352 31.02C220.676 30.72 220.922 30.384 221.09 30.012L222.8 30.894C222.632 31.218 222.386 31.566 222.062 31.938C221.75 32.298 221.33 32.61 220.802 32.874C220.274 33.126 219.608 33.252 218.804 33.252ZM216.41 27.582H220.964C220.916 26.994 220.688 26.526 220.28 26.178C219.884 25.83 219.368 25.656 218.732 25.656C218.072 25.656 217.544 25.83 217.148 26.178C216.752 26.526 216.506 26.994 216.41 27.582ZM229.783 33V20.4H231.853V33H229.783ZM237.23 33.252C236.606 33.252 236.042 33.144 235.538 32.928C235.034 32.7 234.632 32.376 234.332 31.956C234.044 31.536 233.9 31.02 233.9 30.408C233.9 29.808 234.044 29.304 234.332 28.896C234.632 28.488 235.04 28.182 235.556 27.978C236.072 27.762 236.66 27.654 237.32 27.654H239.894V27.114C239.894 26.646 239.75 26.268 239.462 25.98C239.174 25.68 238.724 25.53 238.112 25.53C237.512 25.53 237.056 25.674 236.744 25.962C236.444 26.238 236.246 26.598 236.15 27.042L234.242 26.412C234.386 25.944 234.614 25.518 234.926 25.134C235.25 24.75 235.676 24.444 236.204 24.216C236.732 23.976 237.38 23.856 238.148 23.856C239.312 23.856 240.224 24.15 240.884 24.738C241.556 25.314 241.892 26.154 241.892 27.258V30.75C241.892 31.11 242.06 31.29 242.396 31.29H243.152V33H241.694C241.262 33 240.908 32.892 240.632 32.676C240.356 32.46 240.218 32.166 240.218 31.794V31.758H239.912C239.84 31.926 239.714 32.13 239.534 32.37C239.354 32.61 239.078 32.82 238.706 33C238.346 33.168 237.854 33.252 237.23 33.252ZM237.572 31.56C238.256 31.56 238.814 31.368 239.246 30.984C239.678 30.588 239.894 30.06 239.894 29.4V29.22H237.446C237.002 29.22 236.642 29.316 236.366 29.508C236.09 29.7 235.952 29.982 235.952 30.354C235.952 30.714 236.096 31.008 236.384 31.236C236.672 31.452 237.068 31.56 237.572 31.56ZM248.021 33.144C247.337 33.144 246.731 32.994 246.203 32.694C245.675 32.382 245.267 31.95 244.979 31.398C244.691 30.834 244.547 30.18 244.547 29.436V24.108H246.599V29.274C246.599 29.994 246.773 30.528 247.121 30.876C247.481 31.224 247.985 31.398 248.633 31.398C249.365 31.398 249.941 31.158 250.361 30.678C250.793 30.198 251.009 29.508 251.009 28.608V24.108H253.061V33H251.045V31.758H250.739C250.583 32.082 250.295 32.394 249.875 32.694C249.467 32.994 248.849 33.144 248.021 33.144ZM255.693 33V24.108H257.727V25.35H258.033C258.189 25.014 258.471 24.696 258.879 24.396C259.287 24.096 259.905 23.946 260.733 23.946C261.417 23.946 262.023 24.102 262.551 24.414C263.079 24.726 263.487 25.158 263.775 25.71C264.075 26.262 264.225 26.916 264.225 27.672V33H262.155V27.834C262.155 27.114 261.975 26.58 261.615 26.232C261.267 25.872 260.769 25.692 260.121 25.692C259.389 25.692 258.813 25.938 258.393 26.43C257.973 26.91 257.763 27.6 257.763 28.5V33H255.693ZM270.925 33.252C270.061 33.252 269.281 33.072 268.585 32.712C267.889 32.352 267.337 31.83 266.929 31.146C266.533 30.462 266.335 29.64 266.335 28.68V28.428C266.335 27.468 266.533 26.646 266.929 25.962C267.337 25.278 267.889 24.756 268.585 24.396C269.281 24.036 270.061 23.856 270.925 23.856C271.777 23.856 272.503 24.006 273.103 24.306C273.715 24.606 274.207 25.02 274.579 25.548C274.951 26.064 275.191 26.646 275.299 27.294L273.301 27.708C273.253 27.336 273.139 27 272.959 26.7C272.779 26.388 272.521 26.142 272.185 25.962C271.861 25.782 271.459 25.692 270.979 25.692C270.487 25.692 270.043 25.8 269.647 26.016C269.263 26.22 268.957 26.532 268.729 26.952C268.513 27.372 268.405 27.876 268.405 28.464V28.644C268.405 29.232 268.513 29.736 268.729 30.156C268.957 30.564 269.263 30.876 269.647 31.092C270.043 31.308 270.487 31.416 270.979 31.416C271.711 31.416 272.263 31.23 272.635 30.858C273.019 30.474 273.259 29.982 273.355 29.382L275.353 29.85C275.209 30.474 274.951 31.044 274.579 31.56C274.207 32.076 273.715 32.49 273.103 32.802C272.503 33.102 271.777 33.252 270.925 33.252ZM277.367 33V20.4H279.437V25.278H279.743C279.839 25.074 279.995 24.87 280.211 24.666C280.427 24.462 280.709 24.294 281.057 24.162C281.417 24.03 281.867 23.964 282.407 23.964C283.091 23.964 283.697 24.12 284.225 24.432C284.753 24.732 285.161 25.158 285.449 25.71C285.749 26.262 285.899 26.916 285.899 27.672V33H283.829V27.834C283.829 27.114 283.649 26.58 283.289 26.232C282.941 25.872 282.443 25.692 281.795 25.692C281.063 25.692 280.487 25.938 280.067 26.43C279.647 26.91 279.437 27.6 279.437 28.5V33H277.367ZM288.441 33V24.108H290.511V33H288.441ZM289.467 22.974C289.095 22.974 288.771 22.854 288.495 22.614C288.231 22.362 288.099 22.032 288.099 21.624C288.099 21.216 288.231 20.892 288.495 20.652C288.771 20.4 289.095 20.274 289.467 20.274C289.863 20.274 290.187 20.4 290.439 20.652C290.703 20.892 290.835 21.216 290.835 21.624C290.835 22.032 290.703 22.362 290.439 22.614C290.187 22.854 289.863 22.974 289.467 22.974ZM293.134 33V24.108H295.168V25.35H295.474C295.63 25.014 295.912 24.696 296.32 24.396C296.728 24.096 297.346 23.946 298.174 23.946C298.858 23.946 299.464 24.102 299.992 24.414C300.52 24.726 300.928 25.158 301.216 25.71C301.516 26.262 301.666 26.916 301.666 27.672V33H299.596V27.834C299.596 27.114 299.416 26.58 299.056 26.232C298.708 25.872 298.21 25.692 297.562 25.692C296.83 25.692 296.254 25.938 295.834 26.43C295.414 26.91 295.204 27.6 295.204 28.5V33H293.134ZM303.777 28.59V28.32C303.777 27.384 303.963 26.586 304.335 25.926C304.707 25.254 305.205 24.744 305.829 24.396C306.453 24.036 307.137 23.856 307.881 23.856C308.721 23.856 309.357 24.006 309.789 24.306C310.233 24.606 310.557 24.93 310.761 25.278H311.067V24.108H313.083V34.692C313.083 35.28 312.915 35.742 312.579 36.078C312.243 36.426 311.787 36.6 311.211 36.6H305.235V34.8H310.509C310.857 34.8 311.031 34.62 311.031 34.26V31.686H310.725C310.593 31.89 310.413 32.1 310.185 32.316C309.957 32.52 309.657 32.694 309.285 32.838C308.913 32.982 308.445 33.054 307.881 33.054C307.137 33.054 306.453 32.88 305.829 32.532C305.205 32.172 304.707 31.662 304.335 31.002C303.963 30.33 303.777 29.526 303.777 28.59ZM308.457 31.236C309.201 31.236 309.819 31.002 310.311 30.534C310.803 30.054 311.049 29.388 311.049 28.536V28.356C311.049 27.492 310.803 26.826 310.311 26.358C309.831 25.89 309.213 25.656 308.457 25.656C307.713 25.656 307.089 25.89 306.585 26.358C306.093 26.826 305.847 27.492 305.847 28.356V28.536C305.847 29.388 306.093 30.054 306.585 30.534C307.089 31.002 307.713 31.236 308.457 31.236ZM324.505 33.252C323.617 33.252 322.819 33.072 322.111 32.712C321.415 32.34 320.863 31.818 320.455 31.146C320.059 30.462 319.861 29.646 319.861 28.698V28.41C319.861 27.462 320.059 26.646 320.455 25.962C320.863 25.278 321.415 24.756 322.111 24.396C322.819 24.036 323.617 23.856 324.505 23.856C325.393 23.856 326.185 24.036 326.881 24.396C327.577 24.756 328.123 25.278 328.519 25.962C328.927 26.646 329.131 27.462 329.131 28.41V28.698C329.131 29.646 328.927 30.462 328.519 31.146C328.123 31.818 327.577 32.34 326.881 32.712C326.185 33.072 325.393 33.252 324.505 33.252ZM324.505 31.416C325.261 31.416 325.879 31.176 326.359 30.696C326.839 30.204 327.079 29.52 327.079 28.644V28.464C327.079 27.588 326.839 26.91 326.359 26.43C325.879 25.938 325.261 25.692 324.505 25.692C323.749 25.692 323.131 25.938 322.651 26.43C322.171 26.91 321.931 27.588 321.931 28.464V28.644C321.931 29.52 322.171 30.204 322.651 30.696C323.131 31.176 323.749 31.416 324.505 31.416ZM334.734 33.144C334.05 33.144 333.444 32.994 332.916 32.694C332.388 32.382 331.98 31.95 331.692 31.398C331.404 30.834 331.26 30.18 331.26 29.436V24.108H333.312V29.274C333.312 29.994 333.486 30.528 333.834 30.876C334.194 31.224 334.698 31.398 335.346 31.398C336.078 31.398 336.654 31.158 337.074 30.678C337.506 30.198 337.722 29.508 337.722 28.608V24.108H339.774V33H337.758V31.758H337.452C337.296 32.082 337.008 32.394 336.588 32.694C336.18 32.994 335.562 33.144 334.734 33.144ZM342.406 33V24.108H344.44V25.134H344.746C344.878 24.762 345.1 24.492 345.412 24.324C345.724 24.156 346.096 24.072 346.528 24.072H347.608V25.908H346.492C345.892 25.908 345.406 26.07 345.034 26.394C344.662 26.706 344.476 27.192 344.476 27.852V33H342.406ZM358.183 33.252C357.319 33.252 356.539 33.072 355.843 32.712C355.147 32.352 354.595 31.83 354.187 31.146C353.791 30.462 353.593 29.64 353.593 28.68V28.428C353.593 27.468 353.791 26.646 354.187 25.962C354.595 25.278 355.147 24.756 355.843 24.396C356.539 24.036 357.319 23.856 358.183 23.856C359.035 23.856 359.761 24.006 360.361 24.306C360.973 24.606 361.465 25.02 361.837 25.548C362.209 26.064 362.449 26.646 362.557 27.294L360.559 27.708C360.511 27.336 360.397 27 360.217 26.7C360.037 26.388 359.779 26.142 359.443 25.962C359.119 25.782 358.717 25.692 358.237 25.692C357.745 25.692 357.301 25.8 356.905 26.016C356.521 26.22 356.215 26.532 355.987 26.952C355.771 27.372 355.663 27.876 355.663 28.464V28.644C355.663 29.232 355.771 29.736 355.987 30.156C356.215 30.564 356.521 30.876 356.905 31.092C357.301 31.308 357.745 31.416 358.237 31.416C358.969 31.416 359.521 31.23 359.893 30.858C360.277 30.474 360.517 29.982 360.613 29.382L362.611 29.85C362.467 30.474 362.209 31.044 361.837 31.56C361.465 32.076 360.973 32.49 360.361 32.802C359.761 33.102 359.035 33.252 358.183 33.252ZM368.837 33.252C367.949 33.252 367.151 33.072 366.443 32.712C365.747 32.34 365.195 31.818 364.787 31.146C364.391 30.462 364.193 29.646 364.193 28.698V28.41C364.193 27.462 364.391 26.646 364.787 25.962C365.195 25.278 365.747 24.756 366.443 24.396C367.151 24.036 367.949 23.856 368.837 23.856C369.725 23.856 370.517 24.036 371.213 24.396C371.909 24.756 372.455 25.278 372.851 25.962C373.259 26.646 373.463 27.462 373.463 28.41V28.698C373.463 29.646 373.259 30.462 372.851 31.146C372.455 31.818 371.909 32.34 371.213 32.712C370.517 33.072 369.725 33.252 368.837 33.252ZM368.837 31.416C369.593 31.416 370.211 31.176 370.691 30.696C371.171 30.204 371.411 29.52 371.411 28.644V28.464C371.411 27.588 371.171 26.91 370.691 26.43C370.211 25.938 369.593 25.692 368.837 25.692C368.081 25.692 367.463 25.938 366.983 26.43C366.503 26.91 366.263 27.588 366.263 28.464V28.644C366.263 29.52 366.503 30.204 366.983 30.696C367.463 31.176 368.081 31.416 368.837 31.416ZM379.066 33.144C378.382 33.144 377.776 32.994 377.248 32.694C376.72 32.382 376.312 31.95 376.024 31.398C375.736 30.834 375.592 30.18 375.592 29.436V24.108H377.644V29.274C377.644 29.994 377.818 30.528 378.166 30.876C378.526 31.224 379.03 31.398 379.678 31.398C380.41 31.398 380.986 31.158 381.406 30.678C381.838 30.198 382.054 29.508 382.054 28.608V24.108H384.106V33H382.09V31.758H381.784C381.628 32.082 381.34 32.394 380.92 32.694C380.512 32.994 379.894 33.144 379.066 33.144ZM386.738 33V24.108H388.772V25.134H389.078C389.21 24.762 389.432 24.492 389.744 24.324C390.056 24.156 390.428 24.072 390.86 24.072H391.94V25.908H390.824C390.224 25.908 389.738 26.07 389.366 26.394C388.994 26.706 388.808 27.192 388.808 27.852V33H386.738ZM397.248 33.252C396.096 33.252 395.148 33 394.404 32.496C393.66 31.992 393.21 31.254 393.054 30.282L394.962 29.796C395.046 30.252 395.196 30.612 395.412 30.876C395.628 31.14 395.892 31.326 396.204 31.434C396.528 31.542 396.876 31.596 397.248 31.596C397.812 31.596 398.232 31.494 398.508 31.29C398.796 31.086 398.94 30.828 398.94 30.516C398.94 30.192 398.802 29.952 398.526 29.796C398.262 29.64 397.854 29.508 397.302 29.4L396.744 29.31C396.132 29.19 395.574 29.028 395.07 28.824C394.566 28.608 394.158 28.32 393.846 27.96C393.546 27.588 393.396 27.12 393.396 26.556C393.396 25.692 393.714 25.026 394.35 24.558C394.998 24.09 395.844 23.856 396.888 23.856C397.884 23.856 398.706 24.078 399.354 24.522C400.002 24.966 400.422 25.56 400.614 26.304L398.706 26.88C398.61 26.376 398.4 26.022 398.076 25.818C397.752 25.602 397.356 25.494 396.888 25.494C396.408 25.494 396.036 25.578 395.772 25.746C395.52 25.914 395.394 26.154 395.394 26.466C395.394 26.778 395.526 27.012 395.79 27.168C396.054 27.324 396.408 27.438 396.852 27.51L397.41 27.618C398.07 27.738 398.664 27.894 399.192 28.086C399.732 28.278 400.158 28.554 400.47 28.914C400.782 29.274 400.938 29.76 400.938 30.372C400.938 31.296 400.602 32.01 399.93 32.514C399.27 33.006 398.376 33.252 397.248 33.252ZM407.101 33.252C406.213 33.252 405.427 33.066 404.743 32.694C404.071 32.31 403.543 31.776 403.159 31.092C402.787 30.396 402.601 29.586 402.601 28.662V28.446C402.601 27.51 402.787 26.7 403.159 26.016C403.531 25.332 404.053 24.804 404.725 24.432C405.397 24.048 406.171 23.856 407.047 23.856C407.911 23.856 408.667 24.048 409.315 24.432C409.963 24.804 410.467 25.332 410.827 26.016C411.187 26.7 411.367 27.498 411.367 28.41V29.148H404.689C404.713 29.844 404.959 30.402 405.427 30.822C405.895 31.242 406.471 31.452 407.155 31.452C407.827 31.452 408.325 31.308 408.649 31.02C408.973 30.72 409.219 30.384 409.387 30.012L411.097 30.894C410.929 31.218 410.683 31.566 410.359 31.938C410.047 32.298 409.627 32.61 409.099 32.874C408.571 33.126 407.905 33.252 407.101 33.252ZM404.707 27.582H409.261C409.213 26.994 408.985 26.526 408.577 26.178C408.181 25.83 407.665 25.656 407.029 25.656C406.369 25.656 405.841 25.83 405.445 26.178C405.049 26.526 404.803 26.994 404.707 27.582ZM417.164 33.252C416.012 33.252 415.064 33 414.32 32.496C413.576 31.992 413.126 31.254 412.97 30.282L414.878 29.796C414.962 30.252 415.112 30.612 415.328 30.876C415.544 31.14 415.808 31.326 416.12 31.434C416.444 31.542 416.792 31.596 417.164 31.596C417.728 31.596 418.148 31.494 418.424 31.29C418.712 31.086 418.856 30.828 418.856 30.516C418.856 30.192 418.718 29.952 418.442 29.796C418.178 29.64 417.77 29.508 417.218 29.4L416.66 29.31C416.048 29.19 415.49 29.028 414.986 28.824C414.482 28.608 414.074 28.32 413.762 27.96C413.462 27.588 413.312 27.12 413.312 26.556C413.312 25.692 413.63 25.026 414.266 24.558C414.914 24.09 415.76 23.856 416.804 23.856C417.8 23.856 418.622 24.078 419.27 24.522C419.918 24.966 420.338 25.56 420.53 26.304L418.622 26.88C418.526 26.376 418.316 26.022 417.992 25.818C417.668 25.602 417.272 25.494 416.804 25.494C416.324 25.494 415.952 25.578 415.688 25.746C415.436 25.914 415.31 26.154 415.31 26.466C415.31 26.778 415.442 27.012 415.706 27.168C415.97 27.324 416.324 27.438 416.768 27.51L417.326 27.618C417.986 27.738 418.58 27.894 419.108 28.086C419.648 28.278 420.074 28.554 420.386 28.914C420.698 29.274 420.854 29.76 420.854 30.372C420.854 31.296 420.518 32.01 419.846 32.514C419.186 33.006 418.292 33.252 417.164 33.252ZM431.209 33.252C430.057 33.252 429.109 33 428.365 32.496C427.621 31.992 427.171 31.254 427.015 30.282L428.923 29.796C429.007 30.252 429.157 30.612 429.373 30.876C429.589 31.14 429.853 31.326 430.165 31.434C430.489 31.542 430.837 31.596 431.209 31.596C431.773 31.596 432.193 31.494 432.469 31.29C432.757 31.086 432.901 30.828 432.901 30.516C432.901 30.192 432.763 29.952 432.487 29.796C432.223 29.64 431.815 29.508 431.263 29.4L430.705 29.31C430.093 29.19 429.535 29.028 429.031 28.824C428.527 28.608 428.119 28.32 427.807 27.96C427.507 27.588 427.357 27.12 427.357 26.556C427.357 25.692 427.675 25.026 428.311 24.558C428.959 24.09 429.805 23.856 430.849 23.856C431.845 23.856 432.667 24.078 433.315 24.522C433.963 24.966 434.383 25.56 434.575 26.304L432.667 26.88C432.571 26.376 432.361 26.022 432.037 25.818C431.713 25.602 431.317 25.494 430.849 25.494C430.369 25.494 429.997 25.578 429.733 25.746C429.481 25.914 429.355 26.154 429.355 26.466C429.355 26.778 429.487 27.012 429.751 27.168C430.015 27.324 430.369 27.438 430.813 27.51L431.371 27.618C432.031 27.738 432.625 27.894 433.153 28.086C433.693 28.278 434.119 28.554 434.431 28.914C434.743 29.274 434.899 29.76 434.899 30.372C434.899 31.296 434.563 32.01 433.891 32.514C433.231 33.006 432.337 33.252 431.209 33.252ZM441.206 33.252C440.318 33.252 439.52 33.072 438.812 32.712C438.116 32.34 437.564 31.818 437.156 31.146C436.76 30.462 436.562 29.646 436.562 28.698V28.41C436.562 27.462 436.76 26.646 437.156 25.962C437.564 25.278 438.116 24.756 438.812 24.396C439.52 24.036 440.318 23.856 441.206 23.856C442.094 23.856 442.886 24.036 443.582 24.396C444.278 24.756 444.824 25.278 445.22 25.962C445.628 26.646 445.832 27.462 445.832 28.41V28.698C445.832 29.646 445.628 30.462 445.22 31.146C444.824 31.818 444.278 32.34 443.582 32.712C442.886 33.072 442.094 33.252 441.206 33.252ZM441.206 31.416C441.962 31.416 442.58 31.176 443.06 30.696C443.54 30.204 443.78 29.52 443.78 28.644V28.464C443.78 27.588 443.54 26.91 443.06 26.43C442.58 25.938 441.962 25.692 441.206 25.692C440.45 25.692 439.832 25.938 439.352 26.43C438.872 26.91 438.632 27.588 438.632 28.464V28.644C438.632 29.52 438.872 30.204 439.352 30.696C439.832 31.176 440.45 31.416 441.206 31.416ZM452.245 33.252C451.357 33.252 450.559 33.072 449.851 32.712C449.155 32.34 448.603 31.818 448.195 31.146C447.799 30.462 447.601 29.646 447.601 28.698V28.41C447.601 27.462 447.799 26.646 448.195 25.962C448.603 25.278 449.155 24.756 449.851 24.396C450.559 24.036 451.357 23.856 452.245 23.856C453.133 23.856 453.925 24.036 454.621 24.396C455.317 24.756 455.863 25.278 456.259 25.962C456.667 26.646 456.871 27.462 456.871 28.41V28.698C456.871 29.646 456.667 30.462 456.259 31.146C455.863 31.818 455.317 32.34 454.621 32.712C453.925 33.072 453.133 33.252 452.245 33.252ZM452.245 31.416C453.001 31.416 453.619 31.176 454.099 30.696C454.579 30.204 454.819 29.52 454.819 28.644V28.464C454.819 27.588 454.579 26.91 454.099 26.43C453.619 25.938 453.001 25.692 452.245 25.692C451.489 25.692 450.871 25.938 450.391 26.43C449.911 26.91 449.671 27.588 449.671 28.464V28.644C449.671 29.52 449.911 30.204 450.391 30.696C450.871 31.176 451.489 31.416 452.245 31.416ZM459.072 33V24.108H461.106V25.35H461.412C461.568 25.014 461.85 24.696 462.258 24.396C462.666 24.096 463.284 23.946 464.112 23.946C464.796 23.946 465.402 24.102 465.93 24.414C466.458 24.726 466.866 25.158 467.154 25.71C467.454 26.262 467.604 26.916 467.604 27.672V33H465.534V27.834C465.534 27.114 465.354 26.58 464.994 26.232C464.646 25.872 464.148 25.692 463.5 25.692C462.768 25.692 462.192 25.938 461.772 26.43C461.352 26.91 461.142 27.6 461.142 28.5V33H459.072ZM471.424 33.252C470.968 33.252 470.584 33.102 470.272 32.802C469.972 32.502 469.822 32.118 469.822 31.65C469.822 31.194 469.972 30.816 470.272 30.516C470.584 30.216 470.968 30.066 471.424 30.066C471.88 30.066 472.258 30.216 472.558 30.516C472.858 30.816 473.008 31.2 473.008 31.668C473.008 32.136 472.858 32.52 472.558 32.82C472.258 33.108 471.88 33.252 471.424 33.252ZM24.2393 55V44.362H20.4773V42.4H30.1613V44.362H26.3993V55H24.2393ZM31.9234 55V42.4H33.9934V47.278H34.2994C34.3954 47.074 34.5514 46.87 34.7674 46.666C34.9834 46.462 35.2654 46.294 35.6134 46.162C35.9734 46.03 36.4234 45.964 36.9634 45.964C37.6474 45.964 38.2534 46.12 38.7814 46.432C39.3094 46.732 39.7174 47.158 40.0054 47.71C40.3054 48.262 40.4554 48.916 40.4554 49.672V55H38.3854V49.834C38.3854 49.114 38.2054 48.58 37.8454 48.232C37.4974 47.872 36.9994 47.692 36.3514 47.692C35.6194 47.692 35.0434 47.938 34.6234 48.43C34.2034 48.91 33.9934 49.6 33.9934 50.5V55H31.9234ZM47.0656 55.252C46.1776 55.252 45.3916 55.066 44.7076 54.694C44.0356 54.31 43.5076 53.776 43.1236 53.092C42.7516 52.396 42.5656 51.586 42.5656 50.662V50.446C42.5656 49.51 42.7516 48.7 43.1236 48.016C43.4956 47.332 44.0176 46.804 44.6896 46.432C45.3616 46.048 46.1356 45.856 47.0116 45.856C47.8756 45.856 48.6316 46.048 49.2796 46.432C49.9276 46.804 50.4316 47.332 50.7916 48.016C51.1516 48.7 51.3316 49.498 51.3316 50.41V51.148H44.6536C44.6776 51.844 44.9236 52.402 45.3916 52.822C45.8596 53.242 46.4356 53.452 47.1196 53.452C47.7916 53.452 48.2896 53.308 48.6136 53.02C48.9376 52.72 49.1836 52.384 49.3516 52.012L51.0616 52.894C50.8936 53.218 50.6476 53.566 50.3236 53.938C50.0116 54.298 49.5916 54.61 49.0636 54.874C48.5356 55.126 47.8696 55.252 47.0656 55.252ZM44.6716 49.582H49.2256C49.1776 48.994 48.9496 48.526 48.5416 48.178C48.1456 47.83 47.6296 47.656 46.9936 47.656C46.3336 47.656 45.8056 47.83 45.4096 48.178C45.0136 48.526 44.7676 48.994 44.6716 49.582ZM59.5925 55V47.818H57.2165V46.108H59.5925V44.308C59.5925 43.72 59.7605 43.258 60.0965 42.922C60.4445 42.574 60.9005 42.4 61.4645 42.4H63.6245V44.11H62.1485C61.8125 44.11 61.6445 44.29 61.6445 44.65V46.108H65.4425V47.818H61.6445V55H59.5925ZM65.4425 55V46.108H67.4945V55H65.4425ZM66.4685 45.046C66.0845 45.046 65.7605 44.92 65.4965 44.668C65.2325 44.416 65.1005 44.086 65.1005 43.678C65.1005 43.282 65.2325 42.958 65.4965 42.706C65.7605 42.454 66.0845 42.328 66.4685 42.328C66.8645 42.328 67.1885 42.454 67.4405 42.706C67.7045 42.958 67.8365 43.282 67.8365 43.678C67.8365 44.086 67.7045 44.416 67.4405 44.668C67.1885 44.92 66.8645 45.046 66.4685 45.046ZM70.1206 55V46.108H72.1546V47.134H72.4606C72.5926 46.762 72.8146 46.492 73.1266 46.324C73.4386 46.156 73.8106 46.072 74.2426 46.072H75.3226V47.908H74.2066C73.6066 47.908 73.1206 48.07 72.7486 48.394C72.3766 48.706 72.1906 49.192 72.1906 49.852V55H70.1206ZM80.6305 55.252C79.4785 55.252 78.5305 55 77.7865 54.496C77.0425 53.992 76.5925 53.254 76.4365 52.282L78.3445 51.796C78.4285 52.252 78.5785 52.612 78.7945 52.876C79.0105 53.14 79.2745 53.326 79.5865 53.434C79.9105 53.542 80.2585 53.596 80.6305 53.596C81.1945 53.596 81.6145 53.494 81.8905 53.29C82.1785 53.086 82.3225 52.828 82.3225 52.516C82.3225 52.192 82.1845 51.952 81.9085 51.796C81.6445 51.64 81.2365 51.508 80.6845 51.4L80.1265 51.31C79.5145 51.19 78.9565 51.028 78.4525 50.824C77.9485 50.608 77.5405 50.32 77.2285 49.96C76.9285 49.588 76.7785 49.12 76.7785 48.556C76.7785 47.692 77.0965 47.026 77.7325 46.558C78.3805 46.09 79.2265 45.856 80.2705 45.856C81.2665 45.856 82.0885 46.078 82.7365 46.522C83.3845 46.966 83.8045 47.56 83.9965 48.304L82.0885 48.88C81.9925 48.376 81.7825 48.022 81.4585 47.818C81.1345 47.602 80.7385 47.494 80.2705 47.494C79.7905 47.494 79.4185 47.578 79.1545 47.746C78.9025 47.914 78.7765 48.154 78.7765 48.466C78.7765 48.778 78.9085 49.012 79.1725 49.168C79.4365 49.324 79.7905 49.438 80.2345 49.51L80.7925 49.618C81.4525 49.738 82.0465 49.894 82.5745 50.086C83.1145 50.278 83.5405 50.554 83.8525 50.914C84.1645 51.274 84.3205 51.76 84.3205 52.372C84.3205 53.296 83.9845 54.01 83.3125 54.514C82.6525 55.006 81.7585 55.252 80.6305 55.252ZM89.6238 55C89.0478 55 88.5858 54.832 88.2378 54.496C87.9018 54.148 87.7338 53.68 87.7338 53.092V47.818H85.4118V46.108H87.7338V43.246H89.8038V46.108H92.3598V47.818H89.8038V52.75C89.8038 53.11 89.9718 53.29 90.3078 53.29H92.0898V55H89.6238ZM103.212 55.252C102.276 55.252 101.442 55.084 100.71 54.748C99.9902 54.412 99.4262 53.932 99.0182 53.308C98.6102 52.672 98.4062 51.916 98.4062 51.04V50.716H100.494V50.986C100.494 51.718 100.74 52.3 101.232 52.732C101.736 53.164 102.396 53.38 103.212 53.38C104.028 53.38 104.664 53.182 105.12 52.786C105.576 52.378 105.804 51.868 105.804 51.256V51.094C105.804 50.662 105.696 50.314 105.48 50.05C105.276 49.786 104.994 49.594 104.634 49.474C104.286 49.342 103.89 49.276 103.446 49.276H101.034V46.936L105.3 44.542V44.272H98.7122V42.4H107.604V45.208L103.572 47.476V47.746H104.31C104.91 47.746 105.48 47.866 106.02 48.106C106.572 48.334 107.022 48.688 107.37 49.168C107.718 49.648 107.892 50.272 107.892 51.04V51.238C107.892 52.054 107.694 52.762 107.298 53.362C106.914 53.962 106.368 54.43 105.66 54.766C104.964 55.09 104.148 55.252 103.212 55.252ZM114.576 58.6V46.108H116.61V47.278H116.916C117.12 46.906 117.444 46.576 117.888 46.288C118.344 46 118.992 45.856 119.832 45.856C120.552 45.856 121.218 46.036 121.83 46.396C122.454 46.744 122.952 47.26 123.324 47.944C123.696 48.628 123.882 49.45 123.882 50.41V50.698C123.882 51.658 123.696 52.48 123.324 53.164C122.952 53.848 122.46 54.37 121.848 54.73C121.236 55.078 120.564 55.252 119.832 55.252C119.268 55.252 118.794 55.186 118.41 55.054C118.038 54.922 117.732 54.748 117.492 54.532C117.264 54.316 117.084 54.1 116.952 53.884H116.646V58.6H114.576ZM119.22 53.452C119.976 53.452 120.594 53.212 121.074 52.732C121.566 52.24 121.812 51.544 121.812 50.644V50.464C121.812 49.552 121.566 48.856 121.074 48.376C120.582 47.896 119.964 47.656 119.22 47.656C118.476 47.656 117.852 47.896 117.348 48.376C116.856 48.856 116.61 49.552 116.61 50.464V50.644C116.61 51.544 116.856 52.24 117.348 52.732C117.852 53.212 118.476 53.452 119.22 53.452ZM130.14 55.252C129.252 55.252 128.466 55.066 127.782 54.694C127.11 54.31 126.582 53.776 126.198 53.092C125.826 52.396 125.64 51.586 125.64 50.662V50.446C125.64 49.51 125.826 48.7 126.198 48.016C126.57 47.332 127.092 46.804 127.764 46.432C128.436 46.048 129.21 45.856 130.086 45.856C130.95 45.856 131.706 46.048 132.354 46.432C133.002 46.804 133.506 47.332 133.866 48.016C134.226 48.7 134.406 49.498 134.406 50.41V51.148H127.728C127.752 51.844 127.998 52.402 128.466 52.822C128.934 53.242 129.51 53.452 130.194 53.452C130.866 53.452 131.364 53.308 131.688 53.02C132.012 52.72 132.258 52.384 132.426 52.012L134.136 52.894C133.968 53.218 133.722 53.566 133.398 53.938C133.086 54.298 132.666 54.61 132.138 54.874C131.61 55.126 130.944 55.252 130.14 55.252ZM127.746 49.582H132.3C132.252 48.994 132.024 48.526 131.616 48.178C131.22 47.83 130.704 47.656 130.068 47.656C129.408 47.656 128.88 47.83 128.484 48.178C128.088 48.526 127.842 48.994 127.746 49.582ZM140.743 55.252C139.855 55.252 139.057 55.072 138.349 54.712C137.653 54.34 137.101 53.818 136.693 53.146C136.297 52.462 136.099 51.646 136.099 50.698V50.41C136.099 49.462 136.297 48.646 136.693 47.962C137.101 47.278 137.653 46.756 138.349 46.396C139.057 46.036 139.855 45.856 140.743 45.856C141.631 45.856 142.423 46.036 143.119 46.396C143.815 46.756 144.361 47.278 144.757 47.962C145.165 48.646 145.369 49.462 145.369 50.41V50.698C145.369 51.646 145.165 52.462 144.757 53.146C144.361 53.818 143.815 54.34 143.119 54.712C142.423 55.072 141.631 55.252 140.743 55.252ZM140.743 53.416C141.499 53.416 142.117 53.176 142.597 52.696C143.077 52.204 143.317 51.52 143.317 50.644V50.464C143.317 49.588 143.077 48.91 142.597 48.43C142.117 47.938 141.499 47.692 140.743 47.692C139.987 47.692 139.369 47.938 138.889 48.43C138.409 48.91 138.169 49.588 138.169 50.464V50.644C138.169 51.52 138.409 52.204 138.889 52.696C139.369 53.176 139.987 53.416 140.743 53.416ZM147.57 58.6V46.108H149.604V47.278H149.91C150.114 46.906 150.438 46.576 150.882 46.288C151.338 46 151.986 45.856 152.826 45.856C153.546 45.856 154.212 46.036 154.824 46.396C155.448 46.744 155.946 47.26 156.318 47.944C156.69 48.628 156.876 49.45 156.876 50.41V50.698C156.876 51.658 156.69 52.48 156.318 53.164C155.946 53.848 155.454 54.37 154.842 54.73C154.23 55.078 153.558 55.252 152.826 55.252C152.262 55.252 151.788 55.186 151.404 55.054C151.032 54.922 150.726 54.748 150.486 54.532C150.258 54.316 150.078 54.1 149.946 53.884H149.64V58.6H147.57ZM152.214 53.452C152.97 53.452 153.588 53.212 154.068 52.732C154.56 52.24 154.806 51.544 154.806 50.644V50.464C154.806 49.552 154.56 48.856 154.068 48.376C153.576 47.896 152.958 47.656 152.214 47.656C151.47 47.656 150.846 47.896 150.342 48.376C149.85 48.856 149.604 49.552 149.604 50.464V50.644C149.604 51.544 149.85 52.24 150.342 52.732C150.846 53.212 151.47 53.452 152.214 53.452ZM159.066 55V42.4H161.136V55H159.066ZM167.827 55.252C166.939 55.252 166.153 55.066 165.469 54.694C164.797 54.31 164.269 53.776 163.885 53.092C163.513 52.396 163.327 51.586 163.327 50.662V50.446C163.327 49.51 163.513 48.7 163.885 48.016C164.257 47.332 164.779 46.804 165.451 46.432C166.123 46.048 166.897 45.856 167.773 45.856C168.637 45.856 169.393 46.048 170.041 46.432C170.689 46.804 171.193 47.332 171.553 48.016C171.913 48.7 172.093 49.498 172.093 50.41V51.148H165.415C165.439 51.844 165.685 52.402 166.153 52.822C166.621 53.242 167.197 53.452 167.881 53.452C168.553 53.452 169.051 53.308 169.375 53.02C169.699 52.72 169.945 52.384 170.113 52.012L171.823 52.894C171.655 53.218 171.409 53.566 171.085 53.938C170.773 54.298 170.353 54.61 169.825 54.874C169.297 55.126 168.631 55.252 167.827 55.252ZM165.433 49.582H169.987C169.939 48.994 169.711 48.526 169.303 48.178C168.907 47.83 168.391 47.656 167.755 47.656C167.095 47.656 166.567 47.83 166.171 48.178C165.775 48.526 165.529 48.994 165.433 49.582ZM182.19 55C181.614 55 181.152 54.832 180.804 54.496C180.468 54.148 180.3 53.68 180.3 53.092V47.818H177.978V46.108H180.3V43.246H182.37V46.108H184.926V47.818H182.37V52.75C182.37 53.11 182.538 53.29 182.874 53.29H184.656V55H182.19ZM190.928 55.252C190.04 55.252 189.242 55.072 188.534 54.712C187.838 54.34 187.286 53.818 186.878 53.146C186.482 52.462 186.284 51.646 186.284 50.698V50.41C186.284 49.462 186.482 48.646 186.878 47.962C187.286 47.278 187.838 46.756 188.534 46.396C189.242 46.036 190.04 45.856 190.928 45.856C191.816 45.856 192.608 46.036 193.304 46.396C194 46.756 194.546 47.278 194.942 47.962C195.35 48.646 195.554 49.462 195.554 50.41V50.698C195.554 51.646 195.35 52.462 194.942 53.146C194.546 53.818 194 54.34 193.304 54.712C192.608 55.072 191.816 55.252 190.928 55.252ZM190.928 53.416C191.684 53.416 192.302 53.176 192.782 52.696C193.262 52.204 193.502 51.52 193.502 50.644V50.464C193.502 49.588 193.262 48.91 192.782 48.43C192.302 47.938 191.684 47.692 190.928 47.692C190.172 47.692 189.554 47.938 189.074 48.43C188.594 48.91 188.354 49.588 188.354 50.464V50.644C188.354 51.52 188.594 52.204 189.074 52.696C189.554 53.176 190.172 53.416 190.928 53.416ZM203.891 55V47.818H201.515V46.108H203.891V44.308C203.891 43.72 204.059 43.258 204.395 42.922C204.743 42.574 205.199 42.4 205.763 42.4H207.923V44.11H206.447C206.111 44.11 205.943 44.29 205.943 44.65V46.108H209.741V47.818H205.943V55H203.891ZM209.741 55V46.108H211.793V55H209.741ZM210.767 45.046C210.383 45.046 210.059 44.92 209.795 44.668C209.531 44.416 209.399 44.086 209.399 43.678C209.399 43.282 209.531 42.958 209.795 42.706C210.059 42.454 210.383 42.328 210.767 42.328C211.163 42.328 211.487 42.454 211.739 42.706C212.003 42.958 212.135 43.282 212.135 43.678C212.135 44.086 212.003 44.416 211.739 44.668C211.487 44.92 211.163 45.046 210.767 45.046ZM214.419 55V46.108H216.453V47.35H216.759C216.915 47.014 217.197 46.696 217.605 46.396C218.013 46.096 218.631 45.946 219.459 45.946C220.143 45.946 220.749 46.102 221.277 46.414C221.805 46.726 222.213 47.158 222.501 47.71C222.801 48.262 222.951 48.916 222.951 49.672V55H220.881V49.834C220.881 49.114 220.701 48.58 220.341 48.232C219.993 47.872 219.495 47.692 218.847 47.692C218.115 47.692 217.539 47.938 217.119 48.43C216.699 48.91 216.489 49.6 216.489 50.5V55H214.419ZM225.494 55V46.108H227.564V55H225.494ZM226.52 44.974C226.148 44.974 225.824 44.854 225.548 44.614C225.284 44.362 225.152 44.032 225.152 43.624C225.152 43.216 225.284 42.892 225.548 42.652C225.824 42.4 226.148 42.274 226.52 42.274C226.916 42.274 227.24 42.4 227.492 42.652C227.756 42.892 227.888 43.216 227.888 43.624C227.888 44.032 227.756 44.362 227.492 44.614C227.24 44.854 226.916 44.974 226.52 44.974ZM233.859 55.252C232.707 55.252 231.759 55 231.015 54.496C230.271 53.992 229.821 53.254 229.665 52.282L231.573 51.796C231.657 52.252 231.807 52.612 232.023 52.876C232.239 53.14 232.503 53.326 232.815 53.434C233.139 53.542 233.487 53.596 233.859 53.596C234.423 53.596 234.843 53.494 235.119 53.29C235.407 53.086 235.551 52.828 235.551 52.516C235.551 52.192 235.413 51.952 235.137 51.796C234.873 51.64 234.465 51.508 233.913 51.4L233.355 51.31C232.743 51.19 232.185 51.028 231.681 50.824C231.177 50.608 230.769 50.32 230.457 49.96C230.157 49.588 230.007 49.12 230.007 48.556C230.007 47.692 230.325 47.026 230.961 46.558C231.609 46.09 232.455 45.856 233.499 45.856C234.495 45.856 235.317 46.078 235.965 46.522C236.613 46.966 237.033 47.56 237.225 48.304L235.317 48.88C235.221 48.376 235.011 48.022 234.687 47.818C234.363 47.602 233.967 47.494 233.499 47.494C233.019 47.494 232.647 47.578 232.383 47.746C232.131 47.914 232.005 48.154 232.005 48.466C232.005 48.778 232.137 49.012 232.401 49.168C232.665 49.324 233.019 49.438 233.463 49.51L234.021 49.618C234.681 49.738 235.275 49.894 235.803 50.086C236.343 50.278 236.769 50.554 237.081 50.914C237.393 51.274 237.549 51.76 237.549 52.372C237.549 53.296 237.213 54.01 236.541 54.514C235.881 55.006 234.987 55.252 233.859 55.252ZM239.644 55V42.4H241.714V47.278H242.02C242.116 47.074 242.272 46.87 242.488 46.666C242.704 46.462 242.986 46.294 243.334 46.162C243.694 46.03 244.144 45.964 244.684 45.964C245.368 45.964 245.974 46.12 246.502 46.432C247.03 46.732 247.438 47.158 247.726 47.71C248.026 48.262 248.176 48.916 248.176 49.672V55H246.106V49.834C246.106 49.114 245.926 48.58 245.566 48.232C245.218 47.872 244.72 47.692 244.072 47.692C243.34 47.692 242.764 47.938 242.344 48.43C241.924 48.91 241.714 49.6 241.714 50.5V55H239.644ZM258.69 55C258.114 55 257.652 54.832 257.304 54.496C256.968 54.148 256.8 53.68 256.8 53.092V47.818H254.478V46.108H256.8V43.246H258.87V46.108H261.426V47.818H258.87V52.75C258.87 53.11 259.038 53.29 259.374 53.29H261.156V55H258.69ZM263.533 55V42.4H265.603V47.278H265.909C266.005 47.074 266.161 46.87 266.377 46.666C266.593 46.462 266.875 46.294 267.223 46.162C267.583 46.03 268.033 45.964 268.573 45.964C269.257 45.964 269.863 46.12 270.391 46.432C270.919 46.732 271.327 47.158 271.615 47.71C271.915 48.262 272.065 48.916 272.065 49.672V55H269.995V49.834C269.995 49.114 269.815 48.58 269.455 48.232C269.107 47.872 268.609 47.692 267.961 47.692C267.229 47.692 266.653 47.938 266.233 48.43C265.813 48.91 265.603 49.6 265.603 50.5V55H263.533ZM278.675 55.252C277.787 55.252 277.001 55.066 276.317 54.694C275.645 54.31 275.117 53.776 274.733 53.092C274.361 52.396 274.175 51.586 274.175 50.662V50.446C274.175 49.51 274.361 48.7 274.733 48.016C275.105 47.332 275.627 46.804 276.299 46.432C276.971 46.048 277.745 45.856 278.621 45.856C279.485 45.856 280.241 46.048 280.889 46.432C281.537 46.804 282.041 47.332 282.401 48.016C282.761 48.7 282.941 49.498 282.941 50.41V51.148H276.263C276.287 51.844 276.533 52.402 277.001 52.822C277.469 53.242 278.045 53.452 278.729 53.452C279.401 53.452 279.899 53.308 280.223 53.02C280.547 52.72 280.793 52.384 280.961 52.012L282.671 52.894C282.503 53.218 282.257 53.566 281.933 53.938C281.621 54.298 281.201 54.61 280.673 54.874C280.145 55.126 279.479 55.252 278.675 55.252ZM276.281 49.582H280.835C280.787 48.994 280.559 48.526 280.151 48.178C279.755 47.83 279.239 47.656 278.603 47.656C277.943 47.656 277.415 47.83 277.019 48.178C276.623 48.526 276.377 48.994 276.281 49.582ZM293.812 55.252C292.948 55.252 292.168 55.072 291.472 54.712C290.776 54.352 290.224 53.83 289.816 53.146C289.42 52.462 289.222 51.64 289.222 50.68V50.428C289.222 49.468 289.42 48.646 289.816 47.962C290.224 47.278 290.776 46.756 291.472 46.396C292.168 46.036 292.948 45.856 293.812 45.856C294.664 45.856 295.39 46.006 295.99 46.306C296.602 46.606 297.094 47.02 297.466 47.548C297.838 48.064 298.078 48.646 298.186 49.294L296.188 49.708C296.14 49.336 296.026 49 295.846 48.7C295.666 48.388 295.408 48.142 295.072 47.962C294.748 47.782 294.346 47.692 293.866 47.692C293.374 47.692 292.93 47.8 292.534 48.016C292.15 48.22 291.844 48.532 291.616 48.952C291.4 49.372 291.292 49.876 291.292 50.464V50.644C291.292 51.232 291.4 51.736 291.616 52.156C291.844 52.564 292.15 52.876 292.534 53.092C292.93 53.308 293.374 53.416 293.866 53.416C294.598 53.416 295.15 53.23 295.522 52.858C295.906 52.474 296.146 51.982 296.242 51.382L298.24 51.85C298.096 52.474 297.838 53.044 297.466 53.56C297.094 54.076 296.602 54.49 295.99 54.802C295.39 55.102 294.664 55.252 293.812 55.252ZM304.465 55.252C303.577 55.252 302.779 55.072 302.071 54.712C301.375 54.34 300.823 53.818 300.415 53.146C300.019 52.462 299.821 51.646 299.821 50.698V50.41C299.821 49.462 300.019 48.646 300.415 47.962C300.823 47.278 301.375 46.756 302.071 46.396C302.779 46.036 303.577 45.856 304.465 45.856C305.353 45.856 306.145 46.036 306.841 46.396C307.537 46.756 308.083 47.278 308.479 47.962C308.887 48.646 309.091 49.462 309.091 50.41V50.698C309.091 51.646 308.887 52.462 308.479 53.146C308.083 53.818 307.537 54.34 306.841 54.712C306.145 55.072 305.353 55.252 304.465 55.252ZM304.465 53.416C305.221 53.416 305.839 53.176 306.319 52.696C306.799 52.204 307.039 51.52 307.039 50.644V50.464C307.039 49.588 306.799 48.91 306.319 48.43C305.839 47.938 305.221 47.692 304.465 47.692C303.709 47.692 303.091 47.938 302.611 48.43C302.131 48.91 301.891 49.588 301.891 50.464V50.644C301.891 51.52 302.131 52.204 302.611 52.696C303.091 53.176 303.709 53.416 304.465 53.416ZM314.695 55.144C314.011 55.144 313.405 54.994 312.877 54.694C312.349 54.382 311.941 53.95 311.653 53.398C311.365 52.834 311.221 52.18 311.221 51.436V46.108H313.273V51.274C313.273 51.994 313.447 52.528 313.795 52.876C314.155 53.224 314.659 53.398 315.307 53.398C316.039 53.398 316.615 53.158 317.035 52.678C317.467 52.198 317.683 51.508 317.683 50.608V46.108H319.735V55H317.719V53.758H317.413C317.257 54.082 316.969 54.394 316.549 54.694C316.141 54.994 315.523 55.144 314.695 55.144ZM322.367 55V46.108H324.401V47.134H324.707C324.839 46.762 325.061 46.492 325.373 46.324C325.685 46.156 326.057 46.072 326.489 46.072H327.569V47.908H326.453C325.853 47.908 325.367 48.07 324.995 48.394C324.623 48.706 324.437 49.192 324.437 49.852V55H322.367ZM332.877 55.252C331.725 55.252 330.777 55 330.033 54.496C329.289 53.992 328.839 53.254 328.683 52.282L330.591 51.796C330.675 52.252 330.825 52.612 331.041 52.876C331.257 53.14 331.521 53.326 331.833 53.434C332.157 53.542 332.505 53.596 332.877 53.596C333.441 53.596 333.861 53.494 334.137 53.29C334.425 53.086 334.569 52.828 334.569 52.516C334.569 52.192 334.431 51.952 334.155 51.796C333.891 51.64 333.483 51.508 332.931 51.4L332.373 51.31C331.761 51.19 331.203 51.028 330.699 50.824C330.195 50.608 329.787 50.32 329.475 49.96C329.175 49.588 329.025 49.12 329.025 48.556C329.025 47.692 329.343 47.026 329.979 46.558C330.627 46.09 331.473 45.856 332.517 45.856C333.513 45.856 334.335 46.078 334.983 46.522C335.631 46.966 336.051 47.56 336.243 48.304L334.335 48.88C334.239 48.376 334.029 48.022 333.705 47.818C333.381 47.602 332.985 47.494 332.517 47.494C332.037 47.494 331.665 47.578 331.401 47.746C331.149 47.914 331.023 48.154 331.023 48.466C331.023 48.778 331.155 49.012 331.419 49.168C331.683 49.324 332.037 49.438 332.481 49.51L333.039 49.618C333.699 49.738 334.293 49.894 334.821 50.086C335.361 50.278 335.787 50.554 336.099 50.914C336.411 51.274 336.567 51.76 336.567 52.372C336.567 53.296 336.231 54.01 335.559 54.514C334.899 55.006 334.005 55.252 332.877 55.252ZM342.73 55.252C341.842 55.252 341.056 55.066 340.372 54.694C339.7 54.31 339.172 53.776 338.788 53.092C338.416 52.396 338.23 51.586 338.23 50.662V50.446C338.23 49.51 338.416 48.7 338.788 48.016C339.16 47.332 339.682 46.804 340.354 46.432C341.026 46.048 341.8 45.856 342.676 45.856C343.54 45.856 344.296 46.048 344.944 46.432C345.592 46.804 346.096 47.332 346.456 48.016C346.816 48.7 346.996 49.498 346.996 50.41V51.148H340.318C340.342 51.844 340.588 52.402 341.056 52.822C341.524 53.242 342.1 53.452 342.784 53.452C343.456 53.452 343.954 53.308 344.278 53.02C344.602 52.72 344.848 52.384 345.016 52.012L346.726 52.894C346.558 53.218 346.312 53.566 345.988 53.938C345.676 54.298 345.256 54.61 344.728 54.874C344.2 55.126 343.534 55.252 342.73 55.252ZM340.336 49.582H344.89C344.842 48.994 344.614 48.526 344.206 48.178C343.81 47.83 343.294 47.656 342.658 47.656C341.998 47.656 341.47 47.83 341.074 48.178C340.678 48.526 340.432 48.994 340.336 49.582ZM352.793 55.252C351.641 55.252 350.693 55 349.949 54.496C349.205 53.992 348.755 53.254 348.599 52.282L350.507 51.796C350.591 52.252 350.741 52.612 350.957 52.876C351.173 53.14 351.437 53.326 351.749 53.434C352.073 53.542 352.421 53.596 352.793 53.596C353.357 53.596 353.777 53.494 354.053 53.29C354.341 53.086 354.485 52.828 354.485 52.516C354.485 52.192 354.347 51.952 354.071 51.796C353.807 51.64 353.399 51.508 352.847 51.4L352.289 51.31C351.677 51.19 351.119 51.028 350.615 50.824C350.111 50.608 349.703 50.32 349.391 49.96C349.091 49.588 348.941 49.12 348.941 48.556C348.941 47.692 349.259 47.026 349.895 46.558C350.543 46.09 351.389 45.856 352.433 45.856C353.429 45.856 354.251 46.078 354.899 46.522C355.547 46.966 355.967 47.56 356.159 48.304L354.251 48.88C354.155 48.376 353.945 48.022 353.621 47.818C353.297 47.602 352.901 47.494 352.433 47.494C351.953 47.494 351.581 47.578 351.317 47.746C351.065 47.914 350.939 48.154 350.939 48.466C350.939 48.778 351.071 49.012 351.335 49.168C351.599 49.324 351.953 49.438 352.397 49.51L352.955 49.618C353.615 49.738 354.209 49.894 354.737 50.086C355.277 50.278 355.703 50.554 356.015 50.914C356.327 51.274 356.483 51.76 356.483 52.372C356.483 53.296 356.147 54.01 355.475 54.514C354.815 55.006 353.921 55.252 352.793 55.252ZM362.734 50.59V50.32C362.734 49.384 362.92 48.586 363.292 47.926C363.664 47.254 364.162 46.744 364.786 46.396C365.41 46.036 366.094 45.856 366.838 45.856C367.678 45.856 368.314 46.006 368.746 46.306C369.19 46.606 369.514 46.93 369.718 47.278H370.024V46.108H372.04V56.692C372.04 57.28 371.872 57.742 371.536 58.078C371.2 58.426 370.744 58.6 370.168 58.6H364.192V56.8H369.466C369.814 56.8 369.988 56.62 369.988 56.26V53.686H369.682C369.55 53.89 369.37 54.1 369.142 54.316C368.914 54.52 368.614 54.694 368.242 54.838C367.87 54.982 367.402 55.054 366.838 55.054C366.094 55.054 365.41 54.88 364.786 54.532C364.162 54.172 363.664 53.662 363.292 53.002C362.92 52.33 362.734 51.526 362.734 50.59ZM367.414 53.236C368.158 53.236 368.776 53.002 369.268 52.534C369.76 52.054 370.006 51.388 370.006 50.536V50.356C370.006 49.492 369.76 48.826 369.268 48.358C368.788 47.89 368.17 47.656 367.414 47.656C366.67 47.656 366.046 47.89 365.542 48.358C365.05 48.826 364.804 49.492 364.804 50.356V50.536C364.804 51.388 365.05 52.054 365.542 52.534C366.046 53.002 366.67 53.236 367.414 53.236ZM378.73 55.252C377.842 55.252 377.056 55.066 376.372 54.694C375.7 54.31 375.172 53.776 374.788 53.092C374.416 52.396 374.23 51.586 374.23 50.662V50.446C374.23 49.51 374.416 48.7 374.788 48.016C375.16 47.332 375.682 46.804 376.354 46.432C377.026 46.048 377.8 45.856 378.676 45.856C379.54 45.856 380.296 46.048 380.944 46.432C381.592 46.804 382.096 47.332 382.456 48.016C382.816 48.7 382.996 49.498 382.996 50.41V51.148H376.318C376.342 51.844 376.588 52.402 377.056 52.822C377.524 53.242 378.1 53.452 378.784 53.452C379.456 53.452 379.954 53.308 380.278 53.02C380.602 52.72 380.848 52.384 381.016 52.012L382.726 52.894C382.558 53.218 382.312 53.566 381.988 53.938C381.676 54.298 381.256 54.61 380.728 54.874C380.2 55.126 379.534 55.252 378.73 55.252ZM376.336 49.582H380.89C380.842 48.994 380.614 48.526 380.206 48.178C379.81 47.83 379.294 47.656 378.658 47.656C377.998 47.656 377.47 47.83 377.074 48.178C376.678 48.526 376.432 48.994 376.336 49.582ZM388.206 55C387.63 55 387.168 54.832 386.82 54.496C386.484 54.148 386.316 53.68 386.316 53.092V47.818H383.994V46.108H386.316V43.246H388.386V46.108H390.942V47.818H388.386V52.75C388.386 53.11 388.554 53.29 388.89 53.29H390.672V55H388.206ZM400.966 55V43.912H400.66L398.77 48.034H396.556L399.238 42.4H403.054V55H400.966ZM404.68 55L408.136 42.4H411.898L415.354 55H413.122L412.366 52.12H407.668L406.912 55H404.68ZM408.172 50.14H411.862L410.17 43.75H409.864L408.172 50.14ZM416.953 55V42.4H422.335C423.127 42.4 423.817 42.538 424.405 42.814C424.993 43.09 425.449 43.48 425.773 43.984C426.109 44.476 426.277 45.07 426.277 45.766V45.964C426.277 46.744 426.091 47.368 425.719 47.836C425.347 48.304 424.897 48.646 424.369 48.862V49.15C424.837 49.174 425.203 49.336 425.467 49.636C425.743 49.936 425.881 50.338 425.881 50.842V55H423.721V51.148C423.721 50.848 423.637 50.608 423.469 50.428C423.313 50.236 423.055 50.14 422.695 50.14H419.131V55H416.953ZM419.131 48.178H422.119C422.743 48.178 423.229 48.016 423.577 47.692C423.937 47.356 424.117 46.912 424.117 46.36V46.198C424.117 45.634 423.943 45.19 423.595 44.866C423.247 44.53 422.755 44.362 422.119 44.362H419.131V48.178ZM437.054 55.252C436.166 55.252 435.38 55.066 434.696 54.694C434.024 54.31 433.496 53.776 433.112 53.092C432.74 52.396 432.554 51.586 432.554 50.662V50.446C432.554 49.51 432.74 48.7 433.112 48.016C433.484 47.332 434.006 46.804 434.678 46.432C435.35 46.048 436.124 45.856 437 45.856C437.864 45.856 438.62 46.048 439.268 46.432C439.916 46.804 440.42 47.332 440.78 48.016C441.14 48.7 441.32 49.498 441.32 50.41V51.148H434.642C434.666 51.844 434.912 52.402 435.38 52.822C435.848 53.242 436.424 53.452 437.108 53.452C437.78 53.452 438.278 53.308 438.602 53.02C438.926 52.72 439.172 52.384 439.34 52.012L441.05 52.894C440.882 53.218 440.636 53.566 440.312 53.938C440 54.298 439.58 54.61 439.052 54.874C438.524 55.126 437.858 55.252 437.054 55.252ZM434.66 49.582H439.214C439.166 48.994 438.938 48.526 438.53 48.178C438.134 47.83 437.618 47.656 436.982 47.656C436.322 47.656 435.794 47.83 435.398 48.178C435.002 48.526 434.756 48.994 434.66 49.582ZM446.199 55.252C445.575 55.252 445.011 55.144 444.507 54.928C444.003 54.7 443.601 54.376 443.301 53.956C443.013 53.536 442.869 53.02 442.869 52.408C442.869 51.808 443.013 51.304 443.301 50.896C443.601 50.488 444.009 50.182 444.525 49.978C445.041 49.762 445.629 49.654 446.289 49.654H448.863V49.114C448.863 48.646 448.719 48.268 448.431 47.98C448.143 47.68 447.693 47.53 447.081 47.53C446.481 47.53 446.025 47.674 445.713 47.962C445.413 48.238 445.215 48.598 445.119 49.042L443.211 48.412C443.355 47.944 443.583 47.518 443.895 47.134C444.219 46.75 444.645 46.444 445.173 46.216C445.701 45.976 446.349 45.856 447.117 45.856C448.281 45.856 449.193 46.15 449.853 46.738C450.525 47.314 450.861 48.154 450.861 49.258V52.75C450.861 53.11 451.029 53.29 451.365 53.29H452.121V55H450.663C450.231 55 449.877 54.892 449.601 54.676C449.325 54.46 449.187 54.166 449.187 53.794V53.758H448.881C448.809 53.926 448.683 54.13 448.503 54.37C448.323 54.61 448.047 54.82 447.675 55C447.315 55.168 446.823 55.252 446.199 55.252ZM446.541 53.56C447.225 53.56 447.783 53.368 448.215 52.984C448.647 52.588 448.863 52.06 448.863 51.4V51.22H446.415C445.971 51.22 445.611 51.316 445.335 51.508C445.059 51.7 444.921 51.982 444.921 52.354C444.921 52.714 445.065 53.008 445.353 53.236C445.641 53.452 446.037 53.56 446.541 53.56ZM457.798 55.252C456.934 55.252 456.154 55.072 455.458 54.712C454.762 54.352 454.21 53.83 453.802 53.146C453.406 52.462 453.208 51.64 453.208 50.68V50.428C453.208 49.468 453.406 48.646 453.802 47.962C454.21 47.278 454.762 46.756 455.458 46.396C456.154 46.036 456.934 45.856 457.798 45.856C458.65 45.856 459.376 46.006 459.976 46.306C460.588 46.606 461.08 47.02 461.452 47.548C461.824 48.064 462.064 48.646 462.172 49.294L460.174 49.708C460.126 49.336 460.012 49 459.832 48.7C459.652 48.388 459.394 48.142 459.058 47.962C458.734 47.782 458.332 47.692 457.852 47.692C457.36 47.692 456.916 47.8 456.52 48.016C456.136 48.22 455.83 48.532 455.602 48.952C455.386 49.372 455.278 49.876 455.278 50.464V50.644C455.278 51.232 455.386 51.736 455.602 52.156C455.83 52.564 456.136 52.876 456.52 53.092C456.916 53.308 457.36 53.416 457.852 53.416C458.584 53.416 459.136 53.23 459.508 52.858C459.892 52.474 460.132 51.982 460.228 51.382L462.226 51.85C462.082 52.474 461.824 53.044 461.452 53.56C461.08 54.076 460.588 54.49 459.976 54.802C459.376 55.102 458.65 55.252 457.798 55.252ZM464.24 55V42.4H466.31V47.278H466.616C466.712 47.074 466.868 46.87 467.084 46.666C467.3 46.462 467.582 46.294 467.93 46.162C468.29 46.03 468.74 45.964 469.28 45.964C469.964 45.964 470.57 46.12 471.098 46.432C471.626 46.732 472.034 47.158 472.322 47.71C472.622 48.262 472.772 48.916 472.772 49.672V55H470.702V49.834C470.702 49.114 470.522 48.58 470.162 48.232C469.814 47.872 469.316 47.692 468.668 47.692C467.936 47.692 467.36 47.938 466.94 48.43C466.52 48.91 466.31 49.6 466.31 50.5V55H464.24Z" fill="#003C35"/>
</g>
<defs>
<filter id="filter0_d_899_472" x="0" y="0" width="494" height="77" filterUnits="userSpaceOnUse" color-interpolation-filters="sRGB">
<feFlood flood-opacity="0" result="BackgroundImageFix"/>
<feColorMatrix in="SourceAlpha" type="matrix" values="0 0 0 0 0 0 0 0 0 0 0 0 0 0 0 0 0 0 127 0" result="hardAlpha"/>
<feOffset dy="2"/>
<feComposite in2="hardAlpha" operator="out"/>
<feColorMatrix type="matrix" values="0 0 0 0 0 0 0 0 0 0.235294 0 0 0 0 0.207843 0 0 0 1 0"/>
<feBlend mode="normal" in2="BackgroundImageFix" result="effect1_dropShadow_899_472"/>
<feBlend mode="normal" in="SourceGraphic" in2="effect1_dropShadow_899_472" result="shape"/>
</filter>
</defs>
</svg>
