<svg width="200" height="34" viewBox="0 0 200 34" fill="none" xmlns="http://www.w3.org/2000/svg">
<path d="M15.552 30H4.864L0.672 23.856V17.616H3.328L0.672 13.456V3.76H2.016V2.032H3.392V0.271999H14.24L18.272 6.576V12.624H15.584L18.272 17.008V26.544H16.896V28.272H15.552V30ZM12.864 25.968V24.24H14.208V22.48H15.584V15.536H14.208V13.808H12.864V12.08H6.112V10.352H4.768V6.864H6.112V5.136H11.52V6.864H12.864V8.592H15.584V5.136H14.208V3.376H12.864V1.648H4.768V3.376H3.392V5.136H2.048V12.08H3.392V13.808H4.768V15.536H11.52V17.264H12.864V20.752H11.52V22.48H6.112V20.752H4.768V18.992H2.048V22.48H3.392V24.24H4.768V25.968H12.864ZM35.8647 30H30.5848L29.1128 27.344V19.376L28.3448 17.84H26.3928V30H21.1128L19.6408 27.344V8.976H31.8648L35.8647 15.28V30ZM33.1768 25.968V13.808H31.8328V12.08H30.4888V10.352H21.0168V25.968H23.7368V13.808H29.1448V15.536H30.4888V25.968H33.1768ZM52.1458 30H41.4578L37.2658 23.856V12.432H38.6098V10.704H39.9858V8.976H50.8338L54.8658 15.28V21.328H53.4897V28.272H52.1458V30ZM49.4578 25.968V24.24H50.8018V22.48H42.7058V20.752H41.3618V18.992H50.8018V17.264H52.1778V13.808H50.8018V12.08H49.4578V10.352H41.3618V12.08H39.9858V13.808H38.6418V22.48H39.9858V24.24H41.3618V25.968H49.4578ZM49.4578 15.536H42.7058V13.808H49.4578V15.536ZM73.8345 30H59.0505L56.2345 25.616V17.616H57.5785V10.704H58.9545V8.976H71.1465L73.8345 13.52V30ZM71.1465 25.968V12.08H69.7705V10.352H60.3305V12.08H58.9545V13.808H68.4265V15.536H60.3305V17.264H58.9545V18.992H57.6105V24.24H58.9545V25.968H71.1465ZM68.4265 22.48H60.3305V18.992H68.4265V22.48ZM90.0833 30H84.8033L81.9553 26.32V30H76.6753L75.2033 27.344V0.271999H80.6753L81.9553 3.12V8.976H87.4273L88.7393 11.792V17.84H87.3953V19.632L90.0833 23.952V30ZM87.3953 25.968V22.48H86.0513V20.752H84.7073V18.992H83.3313V15.536H84.7073V13.808H86.0513V10.352H83.3313V12.08H81.9873V13.808H80.6433V15.536H79.2993V1.648H76.5793V25.968H79.2993V18.992H80.6433V20.752H81.9873V22.48H83.3313V24.24H84.7073V25.968H87.3953ZM114.427 28.272H106.299V33.456H101.019L99.547 30.8V8.976H113.115L117.147 15.28V24.816H115.771V26.544H114.427V28.272ZM111.739 24.24V22.48H113.083V20.752H114.459V13.808H113.083V12.08H111.739V10.352H100.923V29.424H103.643V22.48H104.987V24.24H111.739ZM110.395 20.752H104.987V18.992H103.643V13.808H110.395V15.536H111.739V18.992H110.395V20.752ZM133.396 30H122.708L118.516 23.856V12.432H119.86V10.704H121.236V8.976H132.084L136.116 15.28V21.328H134.74V28.272H133.396V30ZM130.708 25.968V24.24H132.052V22.48H123.956V20.752H122.612V18.992H132.052V17.264H133.428V13.808H132.052V12.08H130.708V10.352H122.612V12.08H121.236V13.808H119.892V22.48H121.236V24.24H122.612V25.968H130.708ZM130.708 15.536H123.956V13.808H130.708V15.536ZM152.365 30H141.677L137.485 23.856V12.432H138.829V10.704H140.205V8.976H151.053L155.085 15.28V21.328H153.708V28.272H152.365V30ZM149.677 25.968V24.24H151.021V22.48H142.925V20.752H141.581V18.992H151.021V17.264H152.397V13.808H151.021V12.08H149.677V10.352H141.581V12.08H140.205V13.808H138.861V22.48H140.205V24.24H141.581V25.968H149.677ZM149.677 15.536H142.925V13.808H149.677V15.536ZM171.333 30H166.053L163.205 26.32V30H157.925L156.453 27.344V0.271999H161.925L163.205 3.12V8.976H168.677L169.989 11.792V17.84H168.645V19.632L171.333 23.952V30ZM168.645 25.968V22.48H167.301V20.752H165.957V18.992H164.581V15.536H165.957V13.808H167.301V10.352H164.581V12.08H163.237V13.808H161.893V15.536H160.549V1.648H157.829V25.968H160.549V18.992H161.893V20.752H163.237V22.48H164.581V24.24H165.957V25.968H168.645ZM180.799 30H174.175L172.703 27.344V19.376H179.519L180.799 22.224V30ZM178.143 25.968V20.752H174.079V25.968H178.143ZM190.268 30H183.644L182.172 27.344V19.376H188.988L190.268 22.224V30ZM187.612 25.968V20.752H183.548V25.968H187.612ZM199.737 30H193.113L191.641 27.344V19.376H198.457L199.737 22.224V30ZM197.081 25.968V20.752H193.017V25.968H197.081Z" fill="white"/>
</svg>
